<mxfile host="Electron" modified="2025-04-21T06:29:36.139Z" agent="Mozilla/5.0 (Windows NT 10.0; Win64; x64) AppleWebKit/537.36 (KHTML, like Gecko) draw.io/22.0.2 Chrome/114.0.5735.289 Electron/25.8.4 Safari/537.36" etag="Q-ypLeIDPLK77E-NqflB" version="22.0.2" type="device">
  <diagram name="第 1 页" id="xIQBllr6kzYDGgtDxufZ">
    <mxGraphModel dx="-92" dy="957" grid="1" gridSize="10" guides="1" tooltips="1" connect="1" arrows="1" fold="1" page="1" pageScale="1" pageWidth="827" pageHeight="1169" math="0" shadow="0">
      <root>
        <mxCell id="0" />
        <mxCell id="1" parent="0" />
        <mxCell id="RV6ZMutweTkdE6J9OqRx-8" value="" style="rounded=0;whiteSpace=wrap;html=1;fillColor=#f5f5f5;strokeWidth=2;" parent="1" vertex="1">
          <mxGeometry x="2473" y="334" width="640" height="548" as="geometry" />
        </mxCell>
        <mxCell id="RV6ZMutweTkdE6J9OqRx-25" value="" style="group;strokeWidth=2;" parent="1" vertex="1" connectable="0">
          <mxGeometry x="2493" y="370" width="600" height="360" as="geometry" />
        </mxCell>
        <mxCell id="RV6ZMutweTkdE6J9OqRx-24" value="" style="rounded=0;whiteSpace=wrap;html=1;fillColor=#e3e3e3;strokeColor=#666666;fontColor=#333333;strokeWidth=2;" parent="RV6ZMutweTkdE6J9OqRx-25" vertex="1">
          <mxGeometry x="20" y="20" width="580" height="340" as="geometry" />
        </mxCell>
        <mxCell id="RV6ZMutweTkdE6J9OqRx-23" value="" style="rounded=0;whiteSpace=wrap;html=1;fillColor=#e3e3e3;strokeColor=#666666;fontColor=#333333;strokeWidth=2;" parent="RV6ZMutweTkdE6J9OqRx-25" vertex="1">
          <mxGeometry x="10" y="10" width="580" height="340" as="geometry" />
        </mxCell>
        <mxCell id="RV6ZMutweTkdE6J9OqRx-17" value="" style="rounded=0;whiteSpace=wrap;html=1;fillColor=#e3e3e3;strokeColor=#666666;fontColor=#333333;strokeWidth=2;" parent="RV6ZMutweTkdE6J9OqRx-25" vertex="1">
          <mxGeometry width="580" height="340" as="geometry" />
        </mxCell>
        <mxCell id="RV6ZMutweTkdE6J9OqRx-1" value="User" style="shape=umlActor;verticalLabelPosition=bottom;verticalAlign=top;html=1;outlineConnect=0;fontSize=27;fontStyle=1;strokeWidth=3;" parent="1" vertex="1">
          <mxGeometry x="2670" y="140" width="70" height="140" as="geometry" />
        </mxCell>
        <mxCell id="RV6ZMutweTkdE6J9OqRx-2" value="Random Arrival Requests" style="shape=umlActor;verticalLabelPosition=bottom;verticalAlign=top;html=1;outlineConnect=0;fontSize=27;fontStyle=1;strokeWidth=3;" parent="1" vertex="1">
          <mxGeometry x="2070" y="140" width="70" height="140" as="geometry" />
        </mxCell>
        <mxCell id="RV6ZMutweTkdE6J9OqRx-3" value="" style="rounded=0;whiteSpace=wrap;html=1;fillColor=#f5f5f5;strokeWidth=2;" parent="1" vertex="1">
          <mxGeometry x="1870" y="334" width="560" height="548" as="geometry" />
        </mxCell>
        <mxCell id="RV6ZMutweTkdE6J9OqRx-37" style="edgeStyle=orthogonalEdgeStyle;rounded=0;orthogonalLoop=1;jettySize=auto;html=1;exitX=1;exitY=0.5;exitDx=0;exitDy=0;entryX=0;entryY=0.5;entryDx=0;entryDy=0;strokeWidth=3;" parent="1" source="RV6ZMutweTkdE6J9OqRx-4" target="RV6ZMutweTkdE6J9OqRx-5" edge="1">
          <mxGeometry relative="1" as="geometry" />
        </mxCell>
        <mxCell id="RV6ZMutweTkdE6J9OqRx-4" value="DNN Models" style="ellipse;whiteSpace=wrap;html=1;fillColor=#fff2cc;strokeColor=#d6b656;strokeWidth=3;fontSize=29;fontStyle=1" parent="1" vertex="1">
          <mxGeometry x="1900" y="389" width="220" height="120" as="geometry" />
        </mxCell>
        <mxCell id="RV6ZMutweTkdE6J9OqRx-5" value="Sampler" style="rounded=1;whiteSpace=wrap;html=1;fillColor=#ffe6cc;strokeColor=#d79b00;strokeWidth=3;fontSize=36;fontStyle=1" parent="1" vertex="1">
          <mxGeometry x="2190" y="389" width="205" height="120" as="geometry" />
        </mxCell>
        <mxCell id="RV6ZMutweTkdE6J9OqRx-6" value="Concurrent Inference Data" style="shape=note;whiteSpace=wrap;html=1;backgroundOutline=1;darkOpacity=0.05;fillColor=#d5e8d4;strokeColor=#82b366;strokeWidth=3;fontSize=30;fontStyle=1" parent="1" vertex="1">
          <mxGeometry x="1900" y="558" width="220" height="120" as="geometry" />
        </mxCell>
        <mxCell id="RV6ZMutweTkdE6J9OqRx-43" style="rounded=0;orthogonalLoop=1;jettySize=auto;html=1;exitX=1;exitY=0.5;exitDx=0;exitDy=0;exitPerimeter=0;entryX=0;entryY=0.5;entryDx=0;entryDy=0;strokeWidth=3;" parent="1" source="RV6ZMutweTkdE6J9OqRx-7" target="RV6ZMutweTkdE6J9OqRx-10" edge="1">
          <mxGeometry relative="1" as="geometry" />
        </mxCell>
        <mxCell id="RV6ZMutweTkdE6J9OqRx-7" value="MLP Predictor" style="shape=cylinder3;whiteSpace=wrap;html=1;boundedLbl=1;backgroundOutline=1;size=15;fillColor=#dce7fb;strokeColor=#6c8ebf;strokeWidth=3;fontSize=30;fontStyle=1" parent="1" vertex="1">
          <mxGeometry x="2215" y="577" width="155" height="110" as="geometry" />
        </mxCell>
        <mxCell id="IAX5D1TncTFkwcdnlTeG-9" value="&lt;b&gt;&lt;font style=&quot;font-size: 40px;&quot;&gt;Offline Phase&lt;/font&gt;&lt;/b&gt;" style="rounded=1;whiteSpace=wrap;html=1;fillColor=#e1d5e7;strokeColor=#9673a6;strokeWidth=3;" parent="1" vertex="1">
          <mxGeometry x="1975" y="752" width="350" height="100" as="geometry" />
        </mxCell>
        <mxCell id="RV6ZMutweTkdE6J9OqRx-13" value="&lt;b&gt;&lt;font style=&quot;font-size: 40px;&quot;&gt;Online Phase&lt;/font&gt;&lt;/b&gt;" style="rounded=1;whiteSpace=wrap;html=1;fillColor=#e1d5e7;strokeColor=#9673a6;strokeWidth=3;" parent="1" vertex="1">
          <mxGeometry x="2618" y="752" width="350" height="100" as="geometry" />
        </mxCell>
        <mxCell id="RV6ZMutweTkdE6J9OqRx-16" value="&lt;font size=&quot;1&quot; style=&quot;&quot;&gt;&lt;b style=&quot;font-size: 30px;&quot;&gt;Request with Deadline&lt;/b&gt;&lt;/font&gt;" style="rounded=1;whiteSpace=wrap;html=1;fillColor=#fff2cc;strokeColor=#d6b656;strokeWidth=3;" parent="1" vertex="1">
          <mxGeometry x="2330" y="232" width="250" height="80" as="geometry" />
        </mxCell>
        <mxCell id="RV6ZMutweTkdE6J9OqRx-22" value="" style="group" parent="1" vertex="1" connectable="0">
          <mxGeometry x="2513" y="568" width="540" height="100" as="geometry" />
        </mxCell>
        <mxCell id="RV6ZMutweTkdE6J9OqRx-19" value="" style="rounded=0;whiteSpace=wrap;html=1;fillColor=#f8e8d0;strokeColor=#d79b00;strokeWidth=3;" parent="RV6ZMutweTkdE6J9OqRx-22" vertex="1">
          <mxGeometry width="540" height="100" as="geometry" />
        </mxCell>
        <mxCell id="RV6ZMutweTkdE6J9OqRx-21" value="" style="shape=image;verticalLabelPosition=bottom;labelBackgroundColor=default;verticalAlign=top;aspect=fixed;imageAspect=0;image=data:image/png,iVBORw0KGgoAAAANSUhEUgAAA8kAAACMCAYAAABPsevbAAAgAElEQVR4nOy9V3vjxp6v+1YhM4vKUkfba9aamb32zOyL8/1vzzPP2XtPWMF2J2VRFDNBZNS5KJCiOqrbaru7Xa8fqimLBAqFAlC/+ieRXfxvhcFgMBgMBoPBYDAYDAbkb90Ag8FgMBgMBoPBYDAYvhSMSDYYDAaDwWAwGAwGg6HCiGSDwWAwGAwGg8FgMBgqjEg2GAwGg8FgMBgMBoOhwohkg8FgMBgMBoPBYDAYKoxINhgMBoPBYDAYDAaDocKIZIPBYDAYDAaDwWAwGCqMSDYYDAaDwWAwGAwGg6HCiGSDwWAwGAwGg8FgMBgqjEg2GAwGg8FgMBgMBoOhwohkg8FgMBgMBoPBYDAYKoxINhgMBoPBYDAYDAaDocKIZIPBYDAYDAaDwWAwGCqMSDYYDAaDwWAwGAwGg6HCiGSDwWAwGAwGg8FgMBgqjEg2GAwGg8FgMBgMBoOhwohkg8FgMBgMBoPBYDAYKoxINhgMBoPBYDAYDAaDocKIZIPBYDAYDAaDwWAwGCqMSDYYDAaDwWAwGAwGg6HCiGSDwWAwGAwGg8FgMBgqjEg2GAwGg8FgMBgMBoOhwohkg8FgMBgMBoPBYDAYKoxINhgMBoPBYDAYDAaDocKIZIPBYDAYDAaDwWAwGCqMSDYYDAaDwWAwGAwGg6HCiGSDwWAwGAwGg8FgMBgqjEg2GAwGg8FgMBgMBoOhwv6tG2AwGAwGg8FgMBjuHyHErd+VUr9RSwyGrwsjkg0Gg8FgMBgMhm8IrYUVZVmiFAihBfProvl3g3jjzXtQt/75tP0t96N+2Xbetd2PXez41O+9c3vLHx/oq/Xu/hL64SMwItlgMBgMBoPBYPiGUEqhVEmeF5RliWVJpLSwbQshxO/GorxaFPgokXybT+krcfvHvfT3zbHcHMOHtnvrO9VqyS9pi1jvx5VQBfU2BSxuezKoe1gwuH0+794Pn4IRyQaDwWAwGAwGw7eAWIqykiTNmExnRFGCZVsEvk+7Wcd1nd+FRVmIG4GqSkWpFEotFxDeFFVCCKQQt6zuH9tPy20vN39fFnylqvaXevs37XvTpf7WdypPAlAIIZHyl7dDKSjVmocCbx6jWmsrAAKkkPfSD6u+UDf7/qXH9TaMSDYYDAaDwWAwGL4VhKAoS5IkpXc9Yjie4NgOnXYT19HWZMuSlUX5t27s5+G2YIOiKCmKgrwoKcuSUr1p1bSkxLKEtrpbEktat7b1IWvlSsCV2oKvUEghsSwLy7L4JfqwVIqiKCiKkrLQngGWZSGlRMq3x56XZak/X5YopbCsG0+CTxWrZakoS0VeaA8FKQRSSmz7pq/W910UxUrI3/TDx+97+RW9/5Isy1FKVccvEeLTtvs+jEg2GAwGg8FgMBi+AYQQK+1XloooThlNFmR5yWQeA4KdzXxlUZby2yt0oxQUZUGeFcRJQriImYcLwigmihOyLK9ELLAWr23bFq7jEAQutcCnXguoBz6B72Hb1rv7aul1XCqiJGU6nXN1PSRJcxzHotNqsr3ZwfNcHPvjpZdSinm4YDydMxpNmUznbG9tsLnRptmoE/jeG+0oioLZfMFgPGE+j5iFCza7bba6HRr1gJrvf3Q7ANI0Yx5G9K6HzMII33NoNersbG4Q1HwsKatFgpzheEp/MKYoSwC2Nzfodlq4roNtWR/ZB1AUBfNFxHQWMhhOyYuCdqtBp9Wg0258Ut++DyOSDQaDwWAwGAyGbwiFtj4mac5kHjGeLvDceWWRUziOjZQS15Ur69+3glKKPC8Io5jReMpgOOHqeshwMmM8m5MkKWmaaSt65bospcBxXQLfo9Oqs9FpsbXRYavbYmujRRD4bxXJ6zGypVJEcUzveshff3rJbL7A91weHe7he3pBwnWcO/e1EEJbvcuS2XzB2UWfF0dnnF1c8acfnqC+A8dxKpEsVmG6JdqCO57OeHVywUVvwGV/yPdPHvCH7xRSCmq+t2Yh/3A7lv0aJynD8ZQfnx9zeT2k3ahzuLtFLfDxfA/LEpRKkWY5/cGYvz87IskyVKn40/eP8V0XS0oc27qTF8Ny30vr/Hgy5/Syz4ujc7I859HBLupwh0Y9wLHtO1v974IRyQaDwWAwGAwGwzeGEALbcfC8AL9moYDRPMW5niKExXa3RbfTWrngftVUiamW4viyP+D88prT8x7jyZw4SbX7c+Ua7Htu5f4rb1yx84IojgkXCy6vBviey1a3w8ODHfb3ttjf2cR13m19L5UiTXMms5CT8z5X10MAZvMFliV5/GAPz3WR8uPcnZVSRFHCcDTl/PKaVyeXdDfa7O1ukue5jsu99XntRbBYJFwPJhydXvL86JwoToiTBFV+R+B5lWX77hZdBaRZzjxc0OsPOTnrEXZa+K5LkqTarRuFrFyrl8c4GEy4Hk0qt2jBowd7bNnt1e/vYiV4gThJGY1nPHt1xvNXp1z2h/iey8HO5ifHj38II5INBoPBYDAYDIZvCm1Jsy0Hz/PxlUOSFcyiHIYhQoEUEHguQeDjOF+3JBBAiRZxk+mcVycX/PTimOevzoiihMBzabUadDtN6vWAes3HdV1c2ybNcpI0ZR5GzOYhk2lIuIhIs4yNdpPpPCQvCho1n2ajju95b22BKvX+Z/OIy/6Ao5NL4iQlTlIC38P3PHY2uziu/WF3Y+0DTmXsJk5SJtM5V4MRZ5d9Hj/cI1xE5Hn+xvcUUKxc7eecXV7z7NXpyoK+0Wqws9lBCnF3t2ehG5LlOWEUcz2YcHF5TZ4XbLRbJElGWblVC6njum3LwrZtZvMFx6eXuI6D49g0GjVazTpe5e5/l1jvxSJmMBzz8uiMH58fEy4itjc7KKWwPzHO+UN83VeEwWAwGAwGg8FguM1admVpSTzPRto663WhCq5GYZVgSbHVbbG50V4lg/qqXK+FdjRWQJ4XDMdTjs8u+fuzI07OeqhSsbezyZOH++xWcby+7+I6trYkS4ui1JbkJE1ZLGKGkxm9/oiTs0vmYcSPz49IswxZWUEf7O980AqKgiwvWEQxl1dD/vbzK2pBwFa3Q3ejRadVB8RHubovs1uXpeJdGbrfbEaV6CrPGU2mnJxJnm93aTXqPH10sIpL/yjLdrXdm0zeipt6yTpZmWPbbHRaPHm4z2A4oXc9YjKd8/OLEzqtJo1awOZGm1rtHbHR1SJBWZRkWUZ/OOLV6QVnl31m8wXdjRYPD3fZ2+7SataxLVnt/v7GrhHJBoPBYDAYDAbDN8ZS9kgpdQyyYwOCLImZzWOUClGqBAGep+Nx/a8skZfQKpmy0Nm8rwcjjs96HJ9eMprM2dvu8uhwj3/+41P2d7bYaDdxHAtLSlYilZus1EmSMZnOOelcURYFz4/OODnvUZaKmu/hey47Wxu4joP1hhVW3WqZUoosL5hMZxyfCra6HfZ3t5BS0KwHHyVOl0J0KUfVjSZ937dWP1WprbHXYsLxaY9mo06zUafdbOD7LrZt31F06x9KVW1Za9fqyCt361azjhBwcbnFee+a68GY0/M+e9s9NlpNPNfFcx2s99TuzvKccBHT6w85Or1kOJ5SqpKdzQ6PDnbZ2uzQqAWfJQGdEckGwzeKvvFWN8ivaFHY8O6ah0u+qlV+g8FgMPzG6GeGFssOliVRKPI84WocQiUwtjfb2FZrVVroq3jWCIESSzfnkOPzK45OL0nTjM2NFn/+0/f84bsHPDjYpdmo4XluVQv5zeesQmHZNrZjgxTkeUFeFgxGE8JFzMvjS7a6HZ4+OoA6BLb1Rhmp5e+WFHiuTbPmIy1JXhT0+iP+8uMLHNui22kR+B6uK1fx1O8/TB15vPqvav9dNLZlSXzPJfBdfN9jMJ7w04tjNjpNmo2Ana0ujfcI1be2p0oUtv7zpgP0NlzHodmoc7i/zSxcUJQlZxd9zi77BJ5HLfDwfZd6zcdey0y9bIdSiuk8pNcf8ur0kpPzKywpebC3zQ9PDnn6cJ92s45dJey67/FqRLLB8A1yc/O/EcqGr4PVuVOrH+t/XXMtM+fVYDAYDB/i5lkhhcC2HSxLT//jCBZhynAarQSGa1sEQYDve3cSb18GgjTNmM0X9K4G9Po6YdbWRovvHh/w5OEBnVYD27ErUfkOZSnAstDx2UKQVy7Kz5qnTKYhvesh16MJ80WE6zkEy02tdZFCadkoJZ7rYlcLDo5jE8Uxz1+dstVts7+7yWa3g+s6dz9KcfNaNfgDLGN2fc+tyiU1iZOUy6shx2c9Oq0Gge/j+y6W/LBQXnXf8s2qPW+2ZVmPe2drgzTTJaFG4ynjyYxXpxdsb3doNms4leu7Pka9naLQZaT6gzEvj885u+gznmrPgMcP9nh8uMfedpda4GNZn8f74ZsTybeLh38NF7bBcL/clCNYPtyMUP7yuVkRVitfppLXnrzVB/QTST/I1v9oMBgMBsP7EaAtxX6AFAIpJUkScXY10fGuRc7ezlaVxfnjYmZ/bdbL/SRpxjxcMJnNWUQxnXaTzW6HbqdFo17TLr2sPWPfRjVlEkKL2majTrfdYrPTJo5TZuGCcBETLhIajWKtITdfX/275sLeqAe0GjWG49nKbXij08SyLNrN+upY7ref1cqN3LIkge+xv7PFw8MdTs/7jCYzTi/6eK5Lp92k3gioBT62fIt1/ON3vToWIQStZoNDBYPRmCiKOTm/4uJqwKuTS+q1gEa9hufdzhqepCnTecir43P+8y/P6A/H2Jbkwf4Of/z+ETvbXWq1YJVF+3OM0W9OJH+pF7LB8GuglNKrb0VBXpRYUtf+08kpvq44o98Ht4o2QFlAnqCKBMoqY6XOtKJ/FwKkjbA8sH0QkpslXXPvMxgMBsO7uHGDlVJWgsRHCEFYlCyihOEsQqkCaTnYtq1r33rOHeyVvzFKkWUZizhhESWkaYbnOjTqNX0MrrPmpfWhZ6W2jkqpXZTrNZ9mPcB1bfJJTpJmxElKnhcf2A7Ytk2jHrC71eVgdwvbuuB6MGYwnvLs5SntZoNup1UlEru7RfnOVIcqhcRxLLobLR4d7qFKLV7DRcTx2SWH+1s0GzV2tzeRgUTc45RCCEHge0gpeLC/QxTFTGYhvesRF1fXNBsB290OnudSC3ykFKiqLvRFb6Djy890ZuzNjTaHe9s82N+h3WzgOJ/HzXrJNyOS1/3XqV5Cyrs56/8KbftUvhTR/9vVz1Nfh6fPF0JRFKRpRriImUcxrmPjeQ6NWoDt+9pF1/TnF8DScixuVrXLHJXHlNE1Kp5AHoOQCKcBlKh0ru9ntosMNiHYBuloEb22TY05yQaDwfAtsO7Kej9zQi2WhRDYtoWUfpWESRCnC86vZ0hpU5Yl+ztdbFtbPOWXalFWClWWZFlOnGRkeY5SYFuWTlZWGQg+bharXaYtqbM0e1Viq7Kqw5zluS53tHTWe8v3ldL1gl3HoVu5fQsB46mu2fzTi2M2u226Gy12tro4VVytPqT76+elQ6EQgma9xv7OJrZlUa/7/PzihP5gxIujcwLfox4EOpGWdbc46bvtX1uyPc9lb2eTsii5Hk5ZRAmD0YQXxxa7W12CwMN1HRwhKIqS0XjKi1dnnF1qq/f3Tw757vEBB3tbbHRauNXCx+cck9+ESF4NqjShiCJ9UoXACmoIz69O8hd4Yd8BUdU7W/El3qA+M19NSMxvxdoCRhjF9K9HnJ73ODrrsbPZYXdnk4cP9gnqNShL05m/KWuu8FQLekWKyhNIRqhoQDm7QEUjQCHcOtR3oCwoF1dQJHpCUN9GNicIbwO8DsJytWC+FYsOX+t9z2AwGAyf386zzELsui4KiFDEecFongAjhNQipNWs43vuFz0hK5WiKAtdHgmla/VW2aM/tR+FEMiqLJaUNwK2LMsPi7NlCS4Egeex1W2TZTnzRczLozPOen1Ozq5oNepYUscMO479ebz+qumGdiGv4boO9ZrPaDzj9EK7Pge+x2anjePYVUklq4ry+uWDUI8zSbNeY6fKNh4uYl6dXTAYTnhxdI7rutSCAM9zSJOMy/6Q50dnhGFEoxZwsLvFd48P2ep2CHxXJ5/7zGPxqxfJ6/GXxSIiu77S00NpIbYt7KCG+pqEwVuC8VfvKvGv334lx2P47OhFZu0eNJ2FPH91yr//37/y//7v/+af//gd//Of/0Cj3WR3fweyHMWHXYQMnwNxYxGoJhpKlagsREVjyskLyvEr1PgUFU8Rfh3R3EU6NSgz1PwCtbiGeIqob6HaB8j2U0T7iRbKbhOBrFywwXhhGAwGw9fL586xs4oZBRzbwaosmVJaRPGc6HpCqUqKPNdC2nGQ1hcco6zWPeWq7M+rBFOfQPVdLbLlWv5m9dq+3tsolFI4tkW9FnC4t41lW1UW7h6nF1d6EaJRZ6PTpCFrny0JlVLahdx1XTqtBt12i6vrMbP5guvBmKIo2dncIAh8At9bLTDcFwKB57l0Wk2ePNojyTIG4wlXgzE/vTzBsqxq/x5RlHB60efZy1MC3+PB/g7fPTrk+0cP6LQbqzjkz81XLZJFleJNpQllHJP1zkiOXiH9AKvRwO50dJq6Ow/m+6UsdWxomubkeU5erK08vXZuK+dLhBSrRApSSl3YXUqdHc8SSPErxZWKm9WyPCtIsow8LyiK8q3tf8vX38ldT4VdZQN0HBvXcX6VC+KrYz3NoYIkzRhPZ5z3rnn28oyNTotHD/ZJ0nwlpA2/NmudrhRK5dq1Opnp1+yScn6Bml5Qzi5RixEUKUiBKBJQBagcigSVLmAxRRU5Io9RWYxMxoj6HrK2DV4bnIZ2wRbW2r6/wAmNwWAwGN7Kcv6V5TlZXlDkBQqF6zg4to1la/fnj6Mq1bP2vZXvkRRIBJ7r6uoJqiRLYDxPEExwHAelSpqNOq5jfzXzsftqpVj7+TGoqqCxQGBXdYNt2+Lh4S5X1yNm4YLTiyuOzi5ptxo8ONjGthur2s+fC9/3aTYsHj/YZR4uWEQx01nIi+NzfN+lUQ/odnQd4/s410pp934hJa6rY4sf7sdcXu2S5QWz+YLj8x6bz17hODbzecTp+RVZnvNoc5d/+O4RDw936bSbOkb+Vxp/X61IXgpkhKBMErLhNenpMfHPf8XubuPs7OEePFzFJf+aU8RlYfKi1IXNp9OQ+SIiSVOKUt2kT7/9LYTQGQcty8KxdSyF5zh4noPvubg4CFvf4JYrWp9rNU9URdCLvGARRYxnIVGUkKRZdYx32Qa3BNzrxcbfxvLvAvBcl0YtoNmorVLofy035t+KPC8Io4TxdE5/MGYyDYnjlLwovoj4/N8bt0pxLXMm5CkqCyln55TTU9TgBeXoCOIQlUSookBYNhRF5T2y3JqCokBlOeQTVDpHxEPU7AjZfgztR4jWY0RtF2HXwfJeE8rVNgwGg8HwxbEej7o0soSLmEWUECc61KbZqFGvBfjSQ1Ylc+68fW6mAW+bSwnAdnR5KCEgkhZhOCGOJ1iWDhGyLQtL1rBt+VqFBcO70JmuFUKgk4A1ajx5sM9kFvJff3vGRe+aV6fntJo12s2azsS9Pt+9x6nbMm3T0u360YM9kiTjvHfN2UWfF0dnuI7N3s6m1h3LhGf3cJ6XQtmyLdqtJkVe8t3jKVGcMBpPObu8wrYERamYTOYkaYbj2Dw42OFf/8cf2N7coF73f3lDPoKvUiQvC2qrNKWIFmS9c9KTV6QnLymue1h+cFM+ZeVu8ZZR9rmubikoFcRJyvVgzLOXJ5xeXDEYT0nT7FaK85tj0sLUqmIfbMfGc2wC36fVrLO50WKz22Gr26FeCwh87/MJRiHAkhSlFlxnF9f89OKYXn/IcDIFxZ3cQZaupTe2LG3Rf1+vq0oUSCHodlo8PNjlycN9Av/wzgXXf8/otQi1SmKnUChh+uvXZZmUq/pVlagiR2ULVDJFhQNUeEU566Fml/r3xQTyDFXk7x/fq20qKHJIdSbSUglUGiLjEaK+iwi2Ef4muC2EHYBYxisby7LBYDB8iZRlSZplpGnOLFwwmy8YTUPG05BwESEE7G1tsLu9we7WRpUJ+P1zsVVJokp4U5SUZUlRvD/sSkoLx/VwsoAiEwwmEUoNKUvY7rbYaDdvBJThgyzFqZAS23XY3urww5NDxpMZcayNaS+PL9ja6OD7Hu1WA891eYdV7Ze0hOWo0OWnGhzsbfH9k0OUKrkeTrjsD3h5co7j2NQCD9d1V/HY97F30PWT642AB/s7LKKE8XTGVX/E0cklaZaTZjlb3TZPHx1wuL/NZrdNEHgrI+SvNYX56kTy+gVZJgn5aFBZkP9O3rugHA1QW7tvaOKbUN+lZfPDVs1Pb6REqZI4SekPRvz335/zn397xslZj0UUr/nS37RgeVwrkWxZVVbiGlvdDR4+2OW7x4f84elD9rY38TwHS3y+2mBISa50IqjTiyv+v//4Gz+9OOH0ogdKD/B3H/+NFVnAG218X3vL6m+WlDw83OVf/vkPeK7Dg4NdHNfR2RX1Ru7jKL85Vv1eJaoQQpiH2K/KUiAvBanOuqnyGLUYUk7PKMdHlMNXEA5Q4QhVFDqhmnhtM+uu9KtNr4tcgcozyDMtlhd91OIcWd9GtJ8gmo+QjQcoIRC2Bdzcd5S6ff8xGAwGw6/DzW19bT5bCdcoSpiFEVfXY3qDEb3rKVejKfNZiCUFs0cRJdCs1/A9d+Vh9755lWKZ1KoECvI8v0MbBY7j4noBcakYzmaEi1hndVaFjlm1LGz7M85DvzFKVSUTsy22uh0sKbkejJlM5gzHE14dX7C3s0W71ajKVrnct8/1ehpjKQTNRo297U3+8PQBSaVZ+oMRL47PaTZqHOxsYts20rLvZ969NsevBQEH+9vkRcH1cMx4Mufl8TlxkmJZFvu7W3z/5AGHe9t0Wg2kJZfTql+Nr0gkV0lvhEBlGUU4J+tdkB49Jz05ori6QMURwnURvg9eANVJVUWBSlNUnleloQRYlnZpfH0ien/NpVSKNC8Io1ivCoYL8rygUbdxXQfbspZemCyD+1VVgDvLM13zbREznsw4711xdHrB0ckFf/rhMf/4D0/Z6LRpNer333bdHG2IR9fZtW1LlxNyHZ1a/z0iWamSPC9I01TH0hQljm2tXDeWteDeWKZQ1U1E6Aso8D08x9GLCp/nKL9tjDj+FRG3nBxUWei6xmlIGWlxrCbnlJNLVDhExWMtbPOC6kL72N3deq+UQuQFKgopC4XIUsRigArPEY0DZP0Q4XZQdg2EzdpKFkYsGwwGw6/DbZfqgqIsyfOSRRQxCxf0B1OurseEcc4iyUkKievX8UuJQJEWklmYMpmFeK5No1HHfptn35rXUZ7nJHHMPC4plEUSBFh3cNVWCvI8I01TkjQnKTLyPEWgaNZrSClpNII1f0HDB6lilF3Xod2q8+ThPkma8defXjKazDg6ucB3HWqBj2Xp0lOfp3d16KeUEj/w2N/ZIlzEDEYTBqMJl70BnWaDva0ue9ubbGy09Hm+x+mClALP0SVKu50WrUZtteAipSDwXTbajarGsrz3/d+Fr0YkL113VVlSJjH58Jr07Jjk+U/kVxcU4yHCcRC1BqLWQNYaCNvWVpwspYhCysUCigJhO0jfRwY1hG3fv5gQgNIu13leECUpi0VMFKfYlqQW+DQade06gBaLZVnVecsLsiyvbkopizhmOJ4SJynHZz3OLq4IFxGe5/G0hJrvIS35CQkcPkR1AVliVZC9024QVXEx1hsi+UYkFHnOIo5JJxlJoouu62LsNVqNOq1WU7ugvjbalwsEVCJ5s9Om0ajjefeTOOD3xLpjreHzcxM2XOpEW0WGSkPUYkA5OaXs/0g5OqWc9iFLtOV4ieT2CbvrQ+C172iLdIRKY0Q8hkUPEV0i0xGUOaKWIvwthOXrclFYZpAYDAbDr8jSGFKU2qKbpBlxkjGezBmMJpz1RpxeDsFyEJaLZdu4noMSNqiSEotFnDOeLaj5HkHgv7tkkFgK3ZwkSZjPU/JSkBcFtm2/0S54LVa5mtTpusAFaZIyDxM8x+JwL6TVqFFXgXmO3JnK+qTAdWxsq86Dgx3KUnF5NdTn/7KPbVvs72zSqNewHRspP72E1Xubghajvueyu90ly3L61yPSNOP0ss/p+RUHu1u4jkOzqctU3TdWlaC3Fnj4lXfCMmmxY9v4nld5K7ze9l+Hr0Ikr2KQi4xiPifr90iPXpCevCTv9yoLsoe1tYu9d4j39HvcgwNkrYbKUvLRkOzyjOz8lDKOsZot7O1d3MOHWI0WwvP0jj6Tu0hZlkhL0mrW2N3u8m9//hMPDnfZ2uoiQSfjQVtRszQnSVPm4YLZPGQ0mdG/HnF+2WcyCzm/vMayfibLciZ/niMswUa7RbvV0De5eyo0r4oSS+rC408fHeJ7Hv/yT38gXEQoeEt8gs7MXZSKaBFxftnnv//+gqPTC3rXQ7Y3O/z5H3/gh+8e8/S7hzop0WsxMXqBTVWeppJ6LaC70WKr28FZLxq+dowfEs/35QL0IXei19vxqft9//GoatuftOk779O4Td2NG5dq7T1BUaCSeRV33EfNq7jj6RVq3kdFU0jTSiCv5Uu4twYt3yi9jyyBcKTj0JI5or6DqO0g/G2Evw1OE+HUQVgIIWFVMuoezn+VY+GzhUC/Zbtm3P5+eCOhzS859R8YS7dFw81nf824OMNXyvI+yNIYor3s4iRlsUiYhgtmYcQ8TAjjlCjJSJVNc2MLIW2EtMiylKIoaDYaOI6D79rYrmQaJtT8kFYlXt6aJ0bpZ1NRaEFelgWW5dFsNPCD4L3zmuW4LwrtFahUgS0VFpJWPaDmezi2bfTxJ3GzINGoBexsdXjycI8oTuhdD7m8GvDs1Sm2rau71Hyv+vy97n71Xgqhy0J1mjx9fEicZoynIdNZyH///SUgaDbqNBs1fN9Dj+pPb8wyrpB3zSYAACAASURBVDjLMgajKcdnPX5+eUp/MKZW81djeTYP+fnFCYHnsrnRxnV1ZvdfMzfRFy+SV64pRU65WJBdX5GeHZMevSC/OKOcjMC2kY0mzt4B7g9/wj18gLO1jXBcVJFTTCekl+ckz/5OGc6xult4ZYm90UUGNaTQ2dLue5K1ujUqVfnfexzsbvHnf/yBP/7DUx482MMSQteurbwIsjTXGbHnIZPpnOvhmNPzHj+/OObZy1OevTrl1fE5i0WE6zpsb3awbZt2q/H6jj/9Aa4AVWKhLdXe7hbbWxuVtVuhxJsbFwiEZZEXBdPpjJ+eHTOdLRhPZ1yPxrRbTX54+pD/9W//xL/+yz9BnkOWvXXXq+0ti7hXq0r6A3cXyMvP/NLz+qH9vDVL5Kfs94PHU7nG/iIP2durxG/bo4kvuguv2eqzRGesnl+hZj3K8Slqeo6a9lCLCSqtrMfLbNWra+iennqvb0apm0RgeUSZDBFxH+IrZO0AUQ8RwQ6whbBqYPl6QnePz57POoLusesMXx9qfQDcz7rwO355V2UMc3803BFxkzQrSTIWUcx4GjKezhnPFkzDhDDKyEtQSGzXp9HyV/OKMNRzyHqjQb1ex7EklBlhMmMyjwijWJeEstx33r+X+1elwnIktXqdZrO5crl+/Xm/7hKepilRtCBLIlxZUHd9uu0G9cDHdXTojpkvfBoC8H2PbqfFo8NdwkXMaDxlMpvz6vSSWs1ne7ONbUmcynvzFwvlt5wqHX9u02rUebC/wzxccH7R53o04fmrMxr1gP3dTaSUeEvBzqc9gpdjqyxKojjhsj/k6PSS47MeYRSxvdmhKAqSNCPNcl4en7PdbXO4t02r1XjDA+Jz80WL5FUd5LKkmE3Iri5JXvxMevKK4uqCcjbTArTRwj44xHn0FO/Jd1iNJsJ2EVKislxnlk0TVBShogUqjvXvRVFd3KKaIH7Gi11QuRBYVVknFzfwsQFl2avR5rolfuVCs9Fpsbe3zcH+Dvu7W2y0WxRlSX8w4rw34NXJBQ+Pzmi3Ghzsbq1qkC33t5bW8JOOa5n0SUiJdOzl/7zZ1nr9acFKJGdZRuA5OM5N2SYp9UXouQ5e4EOWoT4QE7O6CG/punULwnKS9Obx3XyuSlylllbYu/XDRwnjtWRw67+v52Z7537FbYvk29r5+jHfhBr9Amv1evvfsh2x9BQwFpN3opTSccdFTjk9p5ycUQ5eokanqMUUFc8hi1DFuvWYz+4L/8amq5AT1BiymHIxQsyOEa2HOrlX7SH4uyAtdMmoX4ZSSnudU+rWfK6xs3Z9LYe0Ccv4tlHr99Nl8s1fOr5eG0fLe7Jg6RqrVrVO1ZpzhDRJEQ1vYX1MKKUoVUmRlyRpxmA05up6zFlvyGQeU2IhHRfXq+PaDlJaWJaNZdvkeU6WZavnvK500kRKSZZExFHIPMoYjufYlsR17TesyXruJbEtG8d2sCyFbdu4rketVsf3/ZVX4Ovu1gooipzZdEaSRNhSUau5PNrbYH+nS6tZx3Eck/rkU6mmVVJKPM9jb3uTKNYVcU4uruj1h9QDn4PdbSzbYqPd/OxNchybTqvB/o7Odl2UBc9ennF+qUtDea7DRqdZ3Yg/fSJTKkWcpozGU14cnfHi+JzpLKRZr/HHHx5jWxaLRcRlf8h575pXZ5d0N9o8ebhPrcpw/WsZc75Ykby6UPOCMo7Irvukp8ekx9qCrMI5SInVamPv7uM++g7n8CH29g5SWpVYrMSvbSP9ANlo6u/UG0g/AEsnkCrzXK8XKwVVXeV7P57qtfS1t6usgNZyErlSPhY4Nr7n6l+lYGOjTafZoChKLq8HhFHExdWQy/6A04srvnt0SJHnyMqXv6xK/ywdIn7p0QghdFbpNZEm1rZffQgsiZACx7axbetWHIUQAqvK6mfb1t2F+9pk6MZArifhRZlTFNp9qSwKyvLmJr/MEr586WO4+0KIXnnV2SCXE7KlVXu1ElaWFKWiKArKstRJx9DnePnZ906kqv9dltWDtCgocp3IoyzKlThdbas6Jrnc7od77419LYdbWd6UgSiLcpVVXKDLAqz2eU9p/78plIIyQxUZKplBPKUcvKIcvKQcHKHGFzpJ4DKcQKy5Vn/m7nzrUFNKu4KXCy3akykishBFhMwXlEWGLHNwGgi7BtLTgvljGiuWuylJs5woTkmzgqL4/A8xSwo818bz9H3Tsj6jMDf8ZqxCkrKcOMlIs4I0qxLf/aILS39fCHAdnaDS9xxsS+o4zLRgkaTkeUmpSh0rZ1nUApd6YPJlGG6zPnfI8pwsyysLckLvekzveszl9ZQwKfCCOnXHwfZquK67mqsIIVbzCp3ESAupWq2+WsARlkucpgxGM1zHolEPcHGqklCKasKGkBLXcfB9Hz+XWK62OEsp8X1vZZl7XdzrOGYFqkRSUg8c2jWbg50u25sdAt9/f5WTb5L7e7Cs5neVFXej0yRNM3qHuyzimLPLPleDEacXV/ieQ833dOjU52Ll8eqz3W3z5OEek+mco7Mes3DBq5MLNjfaq9jlFR95+yuVIi9yJtM5F1cDjs96XF2PkJZkZ6vLn75/jO+5zBcLirLk6PSSXn/ITy9P8H2XVrOO77k4zq8jX79IkbyyrClFEc50kq6jF6RHz8mvLimjEGFZWBub2IePcB89xX38vXaftvQhrWJbpcTudOHRU6TrUSYJVqOJvbmN3W4jhKAMZ6slaukHSM+79zJDavlSSovYUkGhLS3qLQNfrL3zXYetzTaH+9s8ebDPRW/AM3VGuIgZjibM5iFJkuI4DtKSpJmOPZHiRpDLNXH3sRRFUb20KLSkWBOgS8t1lbirLHVytVK90X2qOm5Vltq69REX/LrhuMhL8ixnEcWEUUy4iIjjlKzKXm7bFp7nUvN9ajWfWuDjujqz9nIz7zu/qiqVkKQZcZRo0VqW1AJflz2wdbbtNMuI4oQwjIgTnclbx3bYBJ5HEHh46/tdWZjFSqyqUh9LlKREUaKPJUmIk1T3VZUF0fNcAt9bvTzP1ef1Qxbv5b9rXgZlWZAmuu2LKNYTzjzXAllKfN+lFvj4nofvuytRft/XxNeG9kgoUSpHxVPKxQA1OqEcHVOOL1GTK1QcQpIB62P7C5pEKwVlgcpKCK8oswUiGaHCU0T9gXbF9nfAaVRW5XWXlPcgRLU6nDEYh5xejhhOFkRxvspYf5+9sIydFkIQ+A7b3Qa7Wy32ttvUHFffW36/Q/WbQ0hBWeoEQuNpxPnVmME4ZDSLKJX65MSVy2eyXsSVdNs1Njt1DrZbNGoek3nM9WjOaW/MNIzJ85LAd2g3fB7tb/Ddg02EkAghjcvp7xwhBKpa8I6TlCjWGagn8wWzMNZxx1FKlObYQZNO3cYPanieXwlkuZYbQi++Z1lWucI6qzmMlLrEaFBrEM0nXA1nWJak1ajRbNQIKnfY9XZ5vkez2UQ4JbmSRFHMfD7XSb9emx8uvSeiKGI+n7EIp4giYbfbYHujQbfTIvD9t8dAf0Rfvc7nCHe8l2dONXm/t6KxSzGwhhA6edbGRovvHh+Q5TnzUM9rXx6d49raFTpOMpbGP/3F+2nSslmgy9DW6zUO93aYzBYMJlPCMOL0os/OVpfNjbY2TL0l+e57WRqX8pxoEXN20ef50RmXVwOKouDh/g7/8N1DHh/u4fsuURwzmYacXfRZLGL+8vcX1Kq56d52l067+atYlL88kbx0sc4yXQe53yM9OyY7PSK/PKeczwGBbHWw9w/xnv6Ac/gIZ2cP6bq3kjspAKEtx0JKhB+g8hzp+UjfR1gWxWxGPuyDUgjLwt7cRjhbn8WarFGrm9Ca79hbPrV0+VJYlkWtXmNjo83OtnZzkUKQpCmT6ZxwERHFKXGakRcFvf6A+XyB4zg0GzW2uh0a9dpNlui7DCihJyVFnjObhwxGk+qiTWg162xutGk269TrtZtjUDfHppaW+TX3uKXL2q3XXajGRFa5Hw1HU4ajCYPhmNFkShglxHGiV7eUdidaisp2S9/UtzY7bG1u4Lkujuu8fd+VEs9zLcD71yPOe9cUeYEQcLi3w97uFlYuyYuCq/6Aq+sRg+GE+SIizwuEFLi2RbNRZ6PdZHtzg53tLp7n4brOLVfpLMuZhwtG4ylX1yNGkynT2YIojomTVK8aKlYiuRb4NGo1NrstNjfadDtt6vUA27bfa60WYuk6VbJYRMzGU/rXI4ajCePpnEWckFYrg5aUOhN5o8bOVpedzQ2azTq1WnC3c/XNcrNwR5GhojHl8Jiy/4Ky/xy1mEI0r8SZulnUWbcgL/XmZ9TMSr1263qbe/fyWk0XkMeoIkKkU2SR6uvWriHsAITkTo0VWsQopUizgvF0wcuzIedXE6bzmKIs7z37/vJ+YlmSZt3jabKJ49psdptrK2pGtHwTVNeRQpEXJdMw5uxqwvHliIv+hKK8H5FsWxYPdtukWUGr4eO5NvMw5vJ6yk9HffrDOUma0W747Gw2qQcuTw66K1d/w+8XpfTic1wtdi9jjudRwjxKiZKCJCspFChLLz67rofrLjP3ysrzTmhjRJVoK8uyyuLr4ziOrlcr5cpdOk9TZouQWZgwHGuxHPi3a+sKAY7rUqvXsQObJFPESUKapqRppo0r1QK6EHr+k6Yp4WzGfDZGqoxazWG722J7o0m9FuA4H+lptGzIWod9jrvzKkTw1vOOT38U3Jq/qpUoXObM+cUOLKwt0tk29ZrP3s4mUZTQH4y46g/pXQ8JAo9Ou8k8XFAsw0TveeF5OSdeF+wP9reZzUNeHl/w6uSC88s+ge/RrNeqcVp+VCOUUiyiZJWs6/i0R5ykNOo1Hj/c58nDfTY3WriuLgt1sLvFk4cHvDo557w34Oi0R6tRx3Mc6jUf23F0XqfPyBcrkot4QT4ckhw9J3n5jLx3TjkZa7fXZht77xDn0Xc3FmR/LfnWa+JTuC6WZSN8PdEXto3Kc8ooIrs8I372I6CQrov3w5+QzRbSdhCW9Ztaz3TMIyAFwnFwawGtVpNGLcC2LYq8YB5GhIu4sggmDMdT/v0//srJWY9GLeDhwS7/+j/+gYcP9rE9F/suIrmyOpZlTpQknF5c8Z9//Znzy2uG4wnfP3nAn//0PY8eHtBo1tfE8GdwU1+tbkIcJUymM/7y4wv+9vNLjk4vqlWocvVggRuXdktadDda7O9s8U9//I4//+MPbG5usOE41bzrZgVqdcMTkiTLGYwm/O3nl/z7//0bRVHiujb/z7/+M81GnVKVzMMF/+e/fuJvP7/k7OKK6Wy+9G5CABvtNvs7m/z5H3/g3/78R7qbHR2LrbQlvShKwkXE0ekFP7844S9/f87F1YDZfEGa6cWOZb9aloVlW7hVPbnHD/f54ekD/vmP3/PgYJd63cK25TvOqwClV7iTNOXqesTRS72/VycXXI8mRHFSuXXp1dJGLaDZqPNP//CUf/rjU76rspsvV5t/lxaT5URdKVSeohbDysX6BDW4quoilwih3n0Z3I4Z+Gxi+damX9/PjWsBlAqlSoh1abxSWGDZWP4uuBsI6ayO+f1UARgKsrxgtki4uJ7w8nzAcLygyEvttr927KtmrYVwvO1I1tbZbk18lqEVliXptAKCwGF7s0leLrf8Oxyj3yzVMwAoSsUiTumP5pxcjnl1NliJZFV96vXhuu6F9Dp6uqAqa50FKOqBR5xkFIVikWQMpwuOL0ec9yZESUa3XSMrSp4cdM0oMwBCe2elGaPRjMv+gIv+iMv+GGl7SMfH8XycmocnrSruePmvvDXHed2KnGUZtVptJZKltFb5XWr1BkWRkyYxaZHRux7heQ6bG62bpintdm3bDkEN6k6DOCsZjcaAIk0THMdeLbQrIElSwvmM6WRINJ+wt9Vkd7PJzmabVqOGbd1dIN/cs9dWkiqBrMqbMC/9WbF6fep5ENXcTwi5WtP+pdOVpfdn8VpIn/YguR+lulqos2022k2SvS3G00OKouDZqzOOz3uVF4HQVtxSvRZMeX+TCaUUVlWqdnd7k1Ipojjl9KLPRW/AZBby5MEerWad9C3Jd9/Gct5YliWT6ZzTyz4vjs85u+xTC3we7G3zw5NDDve38XwPu/JU3d3u8scfHjGZhRyd9bjoDXRcdLtJd6NFXcp3lz+7J74skSyEdsMFiumUtHdOdnFGfnmOWsx1Aql2B3v3APfpD7iHjyqBvJbK/q0WQgmOhaxShwtpUeRzinBOPrgmuziFIkc4NrLe0CK8s4HV+PyB8h9k6TZuSSxbx9y5roNlycpyk5HlOXlRVL7+JcPRlFcnF6BgOgsrq2+DZquJY1mouwhlKSmUYr6IOO9d85cfX3DRG7CI4iqBWJXlWsrKbfyXLNe9hWqeW5Y6A94sjDg9v+To5IK//fyKH58fMxyNmYULPMfRMdBCR0rreJqCNMsYTab0+kPtmr2I+e7JIU8eHej6foGvPQzWb+RSUJRltZI35sXRGWVZEgQeD/Z32NvdZDqd0+sP+Y+//MSzlydMZnPSasW3rNy0wzCmLEseHO5W5waUgCzJiKKI/vWIs4sr/vbsFc9envDy6IzJbE5RlCyzet9YnVm56FuWZDIPmc7nyOpB8PjhAQ2nxm03nKokV16wWERcXFzh2BbPn73i+YtjXhyd0esPiaKErFpcyKsa3bJyp0/SlEUUkWU5Qgo67Rb1WlCZpn+P08NqUKoClcUQTyEOUUnydovtErX29Vvb+twsJyXv252CMkdlILI5ZDNUmSAoP0nIr0JKSqXzBVQLWHI945G6+ZwObdCfX3dpk0In+9Mv+YbQWU5WFHo/ZbH0zvn4Nhu+AgTos62fcXGaEUZJ5amgbsZKlahomUtB3Pr+myw9EpbjrajcZZfiOS9KkrQgXKTMwphFnOE6FosoJc0LsxZjQClFkmbMZiG96yFHZz0G45DxLMarWQQW2MLCslwsuwpTk7ISWTfbWL7XZaK0FTnPc2zbplarVSJZf2gZo5zX6iSNmCyeM12EzEPthea4ur6yWgvxsm2boF7DU7Iq65SRpjpMLwgCvc88Zz6bMpuMoEhoBhbddo2tjSaN2k026w8i1m72VPOXQoet6eSu+viWIksIQS0IqAXep4UGCqGn+baF5zo4to7tTtOMOElX8+OPzeWyXLBIs2wV0ielxLItHMe+V4GmWJ5Xl067yYODHWbhgssrPU97eXyuj82xieJkdRp+SSmmdyGEwJaSRj1gb6vL/u4m+ztd+oMJZxd9LCnptBrMw4U2sHxgWwBpFSJ5dtnnxaszrodjyrJkZ3ODxw/22N3q0mrUV3N5ISTtVoMHB7tc9Ab0B0OKouSid83pRZ92u8H+7jZW88Nhh7+EL0ckL33LiwKV5+TjIdn5GflVT5d5khKr2cR58Bj3yQ94T3/A3tjSbtNSvlsgL6lWahA6MZfKM4rZlHwyopwMUUkMSpE2OohaE2FZyHrjDYvjb0J1/pfixa5ecJM0CqXwPY9mo4bnOrooeH9ElmY8fXjA3t42+we7IJwP21mEAEuSKcV0vuDyasDPL7QY9D0XaUmazTqe6+q+rDZ4n8NUICjR1uHReMrR6QX/8Zef+N//9SNnl9dcXY/wXIfAd2k3GzSq4wZ9Mc7DiMlsznwRcTUYM57OOT7r8W//848kScrTRwd4e9vYjp5UrQuZUimyPCeKYibT2epGeTUYcXR6wcujc/06PmM4nuL72rXbcWzSNCPLdBxmXmrBaztV1kkFizjmqj/kP//6jP/++7Nq8eGaNE2xbZtGvUYt8Kn53sr9KkkzPSkMIxaLmFfzM8bjKVJIbMdia6tLo1G7dQJkFWOXphmTyZyff37J+fklf/3xOccnF8RJhgI8zyGwdLmJOE4JF1FVo3tBkqb0r0fkha7z/cfvH1MPlqWCfqcWZaiWpwsoMyiLGx/nO18Ay1X1+++/G4+IuzVjLUAfpQqUytHuKx+z6HXzOSnAtiSB59AIPLKsIK9qrr/+jaLUIjpJcp3kq4rBF5X7tm1LvCojvhC391NWbdbu1i6BZ1cTo49otuGr5SZi5yb7tCUljm3jedZNuZQ7bUdVCSctar6D59i3xutyH+VqX+XqveH3y8o6pkriOGEwnnB+NeDo7IqskGC5SNvFdm4n5HqbS/C6KFxakZdC2bZtguAmrOrG88HG930azRazMme+CAmjjNl8QaMpCG4lNlJIIfF8n8DWdW5nsxmz2Yw01aFdaZoSLhZMxgNm4yHdlsd2p8XuZotuu7m2/3f3x2v/Qy98KkVZFGR5QZZmxElCGCXMq7nGMh/A7na3uteLKu76bteXWs3tdZ8Enovr6QWFONFzmizLKEs9jwE9v3xvfejKc6xEe0fFccp8EZGmWiS7VXJda5m47K0L4R9J1R5ZJc/a295kVs2/T86vODnv4ToOtcBnHka/YEd3oOpP13VptQT7O5t8//iQcBFzfNbjVPYZjqeMJzPy9SpBt7ZxW8BHccJgNOHVyQU/vzhmPo+oBwGPDvd4+vCAjXYTz3VWglcIQT3w2dvq8v2TQ+I04fmrU66HE47OL6nV/dVc2XHsjxozH8OXI5J1YJsWr+GcYjSkGFzppFpFiWy2sHb2cR4+wT18iN3pIgNt1bqrS7Q+jXryJywLWathNRrIRpMiTSnnU4rxgPzqUluSOxtYrgfLuly/1UNRAaWiLEqKPCfPC/KiQAiB6zg4joPjOviBj3Astre6bLSbnJ1fcT2ccHE1YDAYk8QJgediiQ/cJKp/0zRjNJnR6w+57A+xpORgd5vtrQ22troEga9nq/fZLWsXVhQlDEcTfnx2xH/89Sd+fK4toI5jc7i/rS27O5u0m3XqtQDX0TfxNMsJFzGT2ZzLq2tOz68Iw4hXJ2c4jlW5MaVYlmSz29EC8y0qfzn5SlNdhuHk7JIiz7noDRiMJrSadXZ3Ntmt4sQd2yZJU6azEN/z6HSaPH64T6vZwJI6WcbZxRU/Pzvi//zX3/n7syOG4ymu6/Bgf4ftrQ12Njdo1GsEvruyFKdZTpJmTGch06p2Nihc19buSsuguJXr+PIldHbC0wsWcUSzWacsSw72tmnUdZ/VAh/HthFSEMUJ83DB2UWf49MLZvMFR6eXbHRa1Gs+9VpAvVajVvNxHYeVSfD3hDaBrvlxfagDqoeHEODYCMcFy6oW6lLI4ntrmhASHAdsByEtbfHOEy3oqximD1ta1drrjlR9IgHPtdns1Pnh0Rathk+4SClVeWsCJarJ0yJOmS0SLq+nDMYLojgjz8sqJsqh266x022yu9VEytv3q+VbKaHuuxzudtjqNHBt6+0Tlncd98eM33f12/smSPex3/dt+0N/+1g+dpJ3n/33js+8r0nLr0opadV9up06O90GnZa+p39wzWTpfCC0yN7dbLK/1aZZ9/5/9t6rS44jy9b8zLUKrVICIKirWty5vdbM/5+neZg1V3R3CSpopAgdHq7VPJh5ZCYECRBAFau6DlcQKsOFubu5nbP32fvNyv6K0vCudah3OomfObZftc13uSYfcs98yH7/juKmPxUMQ8dzHEb9LslxQV7W1OhUjaAqEvZ5RqSF2I6r9EmsVwSzxI12iEKS67pW/ccWjiMFtppXijOapmFaFppuUjaC1TZCe1ZydjKTAl5NA6I5gESGbmDaDiB7j3e7HWmaEoYhSRwT7raIKqXnm0wHHWajLh3fwzCNw3Ei3v7A3hStJDuoKEuyLGcXxoRRTJRk0v+2bMXNMmxTx3csBr3uB+WYArAti07gMx70uO4GstC/XHNxvcD3pK2qqc5F8DYPdHUudU2e5Wy2Icv1ltVmR1EU+J5Lx/ekmvgnUFgWgGkYdAKP2WTIw/un5EXJehsSRgnbXUSa54cl6ycBURUlXtMElmkw6vf47N4x613IarsjSTKu5hFxkqLr+o3q9qtYgZB+yFVds1htePT0Jc9eXrPc7Oh1Ak6PJ5yfTJmM+jeaSbdCsigEx7MRZVmQJClJIpPtHx49p+t7WKbBoNfFtu1PMha/nSRZCNA06qKgDHdUmxXVak6TxBJF7g8xj8+wzu5jzk7QPA+h6QehnHcKdeFF3SBMC6M3oBpNMMZTmjihWi6od1vKxRXV7Ig6nqLpBsJ8i9DTXyqaBuqaumwpMhKtlItJG8e2sG0bvxNgBx7HxxOmkwH8CTahpAYvVhvSKKHyXDTLeCvictdEvmC12jJfrFmuNkzHQ46PxhwfT5nORtK+qrW5+Ugh2qesgShOePr8gv/1x+/4v/+f/8F8uWa3i/jmq8/43Vef8S+/+5IvH97Dc22cW/YJdV2TZJKi/ePj5/zHH3/g3//wA09fXFKWFcv1FtPQpZiZa6u+6jcci/K1lpS7mMfPXnK1WJEmMsH+/TcP+eaLB3z+4IzRoI+h65J2FUVoCCzLZDoZMuh3yfOCaB/x5OlL/ud//Jn/8R9/5tmLK3rdgPtnx/z3f/6aLx/e4/xkRuC72KahvIplD0pRVuzCPcvNlh8fP2ezDel3AzzHQTcMyaYoq5sxVJ/VZkdVlWzDkNl4yIP7Jzw4P+He2TGjYR/PkcIhukKS93HCf/75J/7nv3v8rz/8wPOLJ/z4+Dm2ZTIdjxgPhxiWiWVbUP1Xgu1ulsUKxHy3M2+TJE0gTAsRdMEwJaMl3kna9kc6OjQNYblgewjToqkKiNfQ0kI/JRW5lkmyZ5nMhh1sy+BhWlBW9c2irmXECEmfXm1jLhc7NCGkwnpeUiJfBZ5jcjzp8s1nM37/xRGGob+R1iUAQ9cJPJvAc7BVX6kQt3Z4+7zfkDi/U/VZvAEpgZviww337bXtv/73jdrvL+8Wbu3355L+X3ted/bz6m/ePd5lX4e5/Zd/8NaGefN3Xim66LrGsOfz2emQrz+bce9k0B7YYTNvDbUPDYHnTsyUuAAAIABJREFUWPiuTeDZqhDNocbVUjVvLve7jdOvGtdfuIY/t81f8rV/43ff8Z75kP3+3UU7rQkpdDTsS8Ghfr8rdWLSjPlyx2K9I4wz0qIi6HQJgg6e52PbtvRE1jWFgqkkWdGRZW+oflC2bpGy24ly+zOarlOjs9iELJZXOI7N8XR4OMj2naXpkqZtmiZpKt89SSrFFaNwy2695GjkczzucDztMx72MU0dTWiy2aFFbeHW7S8ns7bntP0UZUkcZ2x2e8n+W25Y7yLyskE3LeoayqpiENhoihXZJq+/NmzbpNf1OZoMuV6sefzskov5iqcvrugolp6h6whdez2hu3M6EpTKkpTlesv1YsVytaFuGqbdDr1uQCdwD+zFjx2yJ9hmOhpQlhVRlPLs5TWb3Z75cotl6Hie80n2fQjV6qnpOv1egGFobMI92zDmzz8+Yb7cUNUVruOoNsE3jKeQ7Yt5XnC9WPH9o2e8uJyzjxI+v3/KVw/POTueMOh3DsWLO0UgXaDpJtPRANs0WG9DNts9l3Op39Pv+XiedGKxLPPQJ/4xEeXfTJLcDm6dJJTLOdVqQb1d09Q1wvPQ+kP00QS900U4shL2ixTrt4ZEknXPx+gPMSZHVNsNYmHTFDnVbk2121CFIbrrgfgrKfu2hYOmoUgydtsd1/PVoXe1Va92HRvbavtydY6mIz6/d8oPp8+5uJqzXG94+uKSZxfXmLbJaDyQCe6rbzQBaFK5ebvc8OTJC/7w3Y9czhd0Ao/z0xlfPrzHbDKU1Ju6pinrm2P9KOcr1R3zTJqq//T0JU+eSZ80yzR5eP+Mf/3dl/zbv3zLvfNjjmZjTEPHUAIYLUIeVBW9XolpGgSu7KWpqor1dsfl9ZLHTy+YjoYMBz0GXUkl0u94/glF+xEKxd1TKMGE2WTI2cmM//b7r/jq83uMh318z6P1NszyHqCUogMP3TTYrTa8eHHJH797xB+++4koShj0u3zzxX1+//VD/uV3X3J6PGPQ66iec3FYVNaVtKTqdQNGwx79bocoTnAsi8Gwh2ubr9lpyRdWhWHo+L7L/bNjvv7iPp8/OOfe2RGDfo/AdzEN40DrLquaQVVRKAuvXRQzX60py4r5csNytWG72zEcdqFxfxml+S8Yh5xJE4p7bCAcHxEMEd0JWndKU+U0qUxeGyQr4NfvkFuJmAaWhwhmaP4xCI16f0GTLCDb0JQpVOXd/b1x1+9/PK3lnq5ruLZc0JW+soLj7stTaLJFQ9d18qLCc6Wd2Q0ZQihkxqLf85hOeliGTnPLc/kAoorWZ1JRbBupGt8+MwdabC332/auth7gLVvjbad9u2+6qm/eN+3coKvtAQdvVNljfdPXevdntTvf+dlQD1hrSdduv77Vw92O5+1jaS3bfk3ceLYrj/i6uSuuo/p+b87ll/sHD2Oo0CWpEivU60ZuSygkre1hr9R3NCFVpw3LeDPBoTm8NrAtnY7nMO4HHI97r/3cL4aQPY3t+6SspUXjKz/ylj/8fBzGtX7zuN7uwdeF9rN9mS1KV6pr1C72hRCHNpu3318Ndc3hPmoTs8O9I94unNQyq0plBan+8kAfbrfxX803WhZpdGmXqMue0rxTkBUFg27A0aRPGCXs45SsbCiqnCwuyRMdTTcxTBPTMCUtBkjimDiOaa2fQFAU5UGYtK7rgy1nS8kO95FEZqOULA6ZL7cslhtMw7ghPAlZqNJ1Hdu2cV0X07QIw5DVYo6l1fR8k8mgw9FkRDfwFY1VKABZ0Ai5sfYebD+yn7kiSTNpLRlLDZgwztjHGXGakxUCw+mgNYJGCIoip6lKbNtk0Oviuo6kQ/+KAt8BKTcMPM/l5GjCLpQK47sw4s8/PJX9yWnOZCwdO0xD9hQL7cZGqKkbSiXCtt9HXFwv+e7Hpzx7eQXAdDTgmy/uc3o0kXaguv6W94b6cMvx5T3p40JIH+vJqM/9sxmrzZa6qtlsQrkurN9tmw28cgzvlzc1TYNpmQSaz/nJEUVREcUJq03ILtzfec+q1zcolL6ppMjtcr3l6Ysrnjy7oGkajiYj7p8ecX4yo9vx77QSvBoC6fDSDXxOZhO2u4goTllutjx9fo1rS9cXwzDwPRdd/7jzz28iSb5RiGuok4hyOadcL6i2GzQvQPMD9MEQYzhG8ztopkVTSTXZ9452kaPrCNNE7/bRx1P0+RXCtmmqknq3pdpuqPc7muGQV+msH3y+h/+94d/uNqrIpLUsSeOEzXrL5fWCzTakbhos06Tj+9IH2DQOghCz8YiHD854eO8pSZqy2mx58vyCpy8u6PU7DEb9twgOyP0VRcFyseLxo2f8x59+5HK+pN/r8OD8mK8/v8d0NPx0L0KhUTUVcZJJesaTlzx7cc1qvePh/VO+/fIB//2fv+H/+rd/wg88HKUY/dq1Udes2/E5nY7Vgrzk//1ff+TZy2uevrhiNOjx4N4xJ0cTfN9XUvJ3EQpN08jynNVW9iY7lsXJ0YR/+9dv+G+//5oHZ8doui5R3/YQDsiZAF1D6Dqb3Z5HT17wx+9+4o/fP8b3ZNHhX3//Ff/2r9/y9ef3pe/b4bq8IZFRE9Hp0ZRKIXS6rktLq/ruGDSNfJFalqSifP3Fff7P//5PPLx3ymwykl7Pry6kNA2hWgssw+DiesHjZxekacp6u2O12bLd7Q92UShk5R+9eSpaNAb1HBtSUV/0RmiTz9GGD9D692jiJdXye5po+1H3i9AQpo/mz9DG/wyGi/CeUO8e0eweQbKmaWpoP++K7L1HSHqghm3/TIVd16iBqmrYRxmO8v4Uh6xQ+XXbBh3fYTDo4Bi6Egh8JW4dvxS8qSmKiryQLSlFWUshJiV6p+salkqELNNAGKo/kBv65O248UyXfdNN3aI3muyZtgx0pLJ8WdXkeUleqv0qREXuV8cydax2v7d6Et/4+CjkukVn2nPKy5KyrA/PvxxODcPUDgme/BiHlotfRgfFIaGvqlqJHlZkRSUTVpXwI2QyZRgali6Fa2zLOAhlNS1c9aYxrGqysqQoZQJOg+oD1rBMJdRCq78gF9x102DqOrZl4Om3BRbfdA5gmjq+a9HvuIwHnZtjeZ/pSb0CmqohzYoPo3/eYmVVtSzeFGVFXkrxInkN5c+auo5pyHuqvX6t8rF4JWloRfHSvLwzFxu6LCjYlnFAVF6NuoGmrimKVgdA7d/QDoWmt1mqSEKbehbySiX5stfV0OWzYJrSNu6/WJ58M7dYJoHvHp5b+TyVhFEsEdWrJVfLDbswJS9qhG5hWg6240qkWAjiSCbJMol1FKsvp01O257lTNk4FUVBnCSkeSEtp8KExXrH9WLDoBfg3PZNFvJYHceR27cssjTh6uIFs1GH0/GE6ajL0WSoEGrp29x+93bRrirlXFGWJUmWk2Q5m92ezXbPch2y2u7ZRRl51eC4Pp4f0O100HSdPM8RyZ6qyPBcm/Gwh++5ByuqXxVNg6FLhPX0aEyWSUXm1WbHn398ynobUpYV98+OOTka4zqK9q5p6HprvVWT5Tn7KOFqvuDx80v+8N0jtrsIw9A5no353VefcXY8xbEt2eL084d0K2F+n1NpEErEyzQN7p3OyPOcXbjn0dMXiqGlktNf3BiHvLgtdLWJ87uGYRqYtsXZyRTXtricr3h+OZfWq2VJU7fvo5t7pe1F34URLy7nPHt5xdOX1xxNRpwdT7l/dszZ8RTPcw5CxG88diHp57qncTIdk6X5QZfo+cs5uqZzPB3T7fg4jv1B/t1vPPePurVfEyqZaapKeiMnMfU+pElTaanieeijCeZkhjEcoZlWq9ryq+M2ZUTYNkZvSKl6kKt9SB1H1FFItQ9pSvkS+lDU7IalJJSisiYrh0Ig6lcualuVUYhEGEa8eHnJD4+e8f1Pz1htdri2xbDfYTZV/bCWgaa+2/FdpqMBZyczrhYrNruQ5XrDxdWcs5MZVVFiWKp6dmjKUsdYV+RJxkL1cSxXsnp1dDTiZDZmOhpI8ab3obm/8yDJpDJPa1bbLc9fXvPD42dsw5CBStL/6dsvODmZ4SkVvPY4Xs+RG7Vw0HF9j7PTGf9H8jX7KGG325PlOT89fcnnzy6YTEacnlmYrs3tqywXBc2hUjybjPjmi/v88zdf8LsvHzLs9w5CEK/NgqrAkWUFabrn2fML/vTjExbrLbqmc//siH/+9gt+9/VD7p0dyf7uW4WYt1XUpJ+eenmphaZQBSbUL21FrwF63Q73zo747ME5n312Ti8IXjvmG1RO3nOWadDxXXod6fU8L+ViLE1z0iyj/sgU+7/NaA4vnztUZsNAWBbCH6B1Rgo9PkL0ThD+EGF3aPL9x2FevCkEIHSE7iDsIY3QEGZA406o42uaZC5R7GytbKtuX8uP+Tz/3LaaW7++7z4Pd+vhj20SG0Ypy/We9S5hu08lhbssFYrXqMWQhmeb+J7NuO8z6vv0AhfHMRWKdmtXQpBlFfs45cXVlov5jiwvqaoa37PoBg7TUYBrmxRFzXafMF9HRHEmf04tHDRNJj8dz6EXOEoIx8P3rIPA1GtnWTdUdcV2n7LdJyzWe1bbmCQrDsfQiqXoukysXMfEdy2GPY9Rz6fjOwSe/U5Ib5aXREnGahuzXO/Z7iUKJBErhXqqBbZl6LiORT9wGPUD+l2XXuBiGvqtRa6cf5umIS8rwn3Ky/mWxSZit09pGrBMg17HYdT3pTNB3bBY75lvZCGurhu6gct0GPDF/Sld31E57NvP5+aOun2PvU+Ij/YY1HUj9TGSjPUuZr7as4tS9rFU2y1vJcmWKha4jkngOQy7HoOuR6/jyqRXu6GhplnBbp/y7GrNy+stdSPbCwLPZtjzOZv1GXR9TEN7LenIM6kK/vJ6y8ViR55XNDSM+j6TQcDRpEfXt189FfUsFOyjlGeXG55fbQ+CPZ5jMei4nB8PGPV9LPO/Hpr8arQF9tapoqNQYcuyGA97JElOmleUlSyuFZW02YmSjCwJicKQLI1IIpuyLIiiPZ7nYds2hiEtm1p/Y9mrLJ/jKArZhzs6NoRJjm3nCE2jamqE0Fss6mCZKZoazzaYDgNOpwPunUzodzsSIRWyKCKtmmQCeRCxihJ2YUScZCRZTllD1UBR1vKDhe336DsNDdLX2bQkJbYsS8qyQBcNPd9m0PHo9wKcnyus/kI0an4SjWzn8X2P49mYf/ndl3Q7Pi+vlxR5wfOX16w3IT88fi7bFC0L05RCuLKoKtc5Eg1PiNMMx7YZ3usxG8v+4LPjKd2OdBNp12l3NDeQrArT0HFti9ItcBxT0dbfvTDdblvTBEHgcXI04cH5CZfXK1abHVGaYVkmxltYJ+160TA0bNvAsaXQrW0aGPpttsk7TnhNIxHdjs+90xnL9Raahu1uL7VtlHhWW2msqoosK1htdjx9cU2S5nQDn/unR3zzxX0m474UP9NuFWLeMg4tWyUIPGYzKeRVVhWL1UYBgTu2YUS/16FRyuYfC7z56yfJIF+mdU2dpTJJjvc0eQZ1jea4GIMh5miC2R/Kfr73Lcu8IQ7gi2Wjd3vovQFat08dx/IYoog6jmjK4pDIf5yBFwckuWkpCXAnOWrq5kClyYuS6/mKHx89488/PuGnpy8I9xGB7zIe9jmejeh1A0yFADZNg++6jEYDTo4nPH5+wXc/PWWzDXl5tWC13lJkBZahS9RSSVPfUHsrsjRlsVxzdb1ksw0xDYPpeMDRdMRo0MNzbOmx+oHFijcPj6AoK1abHS8ur3n09CVZnjMa9Ll/fsK3Xz/k+HiC6zkSWarrN16TplE5t66jmybHR1Ms0+BqseLias7F5YInzy948vyC87MjRtMRPU2TSNutjcgHVKoZHk1HfP3FA7754gFffHaueqC1m2Tz9oR5SJJzNustz15c8f1Pz9hs91imyb2TI/7pm8/54uE9jo8mcvxvI+Jvus/URNi+wO48A68Az+3XO4HHyWzC+fkxZ2fHhzF79ZgPY9Y0mIZB4Ll0Oz69js96uyNOUrI8J8sLSfH7VQnO31u085C63oaOsF2E30EbnaMN76EN7qF1jhDeAHQLmhqhm58uSZYwNmgmwuqB2UE4Ixr/GBFf0OyfUe+fUYcVIk8kBfsOI+e3fE1fP7a6rsmLkm0o+5sfv1hycb2TyWqakxevJKv6Ddp4/3jA+fGAZtYwFD6WZdxQtdQznBcl4T7l8Yslf/jxkn2ckRcVg57LdNQhyUYEnk0UZ1wt9zy9WLPdJyRpoSjXDZou9zvoekwGAV/eK6BpDgjz63dCK3hTcr3c8fx6w5OXa17Od8RJJj18VeIvUKrOpk7g2nQDh7NZn/OjAceTLpapYxhyEfjqPNnqN1RlTRilzNd7nl6sePJixWIbsd7GlPUrqLUuFcd9z2Y6DDifDTib9dGEIPCkPsbN9lHqsDW7fcrjlysePV9wuQypKplcHY07nB0N0ARUZc2TixXPLtekuXQIOBp1+PxswmzUpeup5O2dH52/3r3cNFIVdx9nXC13PFeezotNxHafkJcKSVY/bxo6tqmrRNfjdNqX46qBprmYrcJ7A1lRsgljfny64N9/eElZViBgMgg4PxrgOxaBZ2Po1t2DEuq7+4SfXiz544+XxGlO3TTcPx7yxfmYXtelG9ivF3yFIM0L1mHM90/n/O/vXpKrvtlR1+PsaEDgy/tPqsx/GqXZv4U4ADDt+1oITMPAcx26gSfXdbkU40yygihO2O1j1qKgyEq0OqcuM7IiJUtiqqokS1MGgwHdXv+QLNu2RIM9z8W2HWzbJk0TomjPZnFBuL7Cywp0XaOualD1krquKYuCqiwQTYnvGDijDifTASfTEZZtSfvIqqKuJOuhXYvGScY2jFisd8wXa3aRnOuEbqKbNoZpYxgmpmlheyauYaDrNz7Mku1TUJcFtg5d16Xf9RW1+80Fw3cOtajXhFRF1scDNE1X/cMveH5xzfV8xfVyDQ2YpoFlWVimdEYoVC94limrJ6HhujajQY/z0xlffXbOydGYyXAgAZq3Xn8p5ObYFt2OhyYgCFzpDKO9R8e1WsQKoeF7LkfTEQ/Oj1lttjx7ec31coPvOrI971VWoHr0ZCuSpKB3O57UsXHlM6r9Agr+prG1DAPh+5wdT5WIVsqlZdLrBbiurdqm5HxR1dKiNtwnLFdbaGA87HH//IgvH54zHvZVH/G77F4myr7vMBVDHt4/ORQ16qomSlLiJDm0JMC7sajeJX4zSTJ1TZPn0nM0TSWdWmgIy0ZzPemFbNlqXfoRFugqIRG6juY4ch9egNANqGqJIJeFSipuJS8ftDvZu5HmOWmSksYxWtNQKdThUK0rpOfear3j2ctrHj+/4MfHz3j6/JLVZkcn8Dk7mvLV5/f5+vP7DAe9OyikZuo4nst4NGAyGuC5HkVRcDVfcXW9ZLXeoumyX/ZwbkJQ05BlUkV5sdyy2e4PHsHDfo9uV1J3DF37JCiyAJqqIksSlssN8+Wa9S6k4/ucnx1x//4p5/dP6HiuSvTenCDfjHmDkHAwruswmY65d37M5w/OmC83XFwveXEx5+XlnIef36dpalXAuEWTqyoc22Q86HF2MuXzz84YDHvopongVk/IG4+jIU4S5ssVl9cLLq4XCE0wmw45P51JmrfnStGtquZOkvyW87m1aTlst473DYMqK82mFPZAl57Wbz1mtX9NyJ5Q2zRxbPugqlk3d/vo/hFIQS5DgBcgOl20/ina4AzRP0XrzBBOB2H7YCimQHVToPiYIQscNU1dQplBmUi/Y2HR6C7CMhCaRWMNwJ0h/FOa/XOa6CVNtoc656Be+pGO521xEEd91zFQNK628NVGVdfsVXL347M5j54veXqxVoir8o4/9F02h75XQ9dxLIP5OuTF9ZYv7014cDrkZNpXqsaK2iugahryomIXpVyt9uz2KVlWEKU5USpROUPTWG1jtmHKLpIocuvL2R6zJgTLTczVIiRKcvZxxrdNw8m0h2MpizgEVV1RljWXi5CX1xu+fzLnh2dzNruEMMooFCXwprAqDrTqlmp9vdrz/GrD1w+m5EXJZNih3/HusOtb6myc5Ky2MY9fLvnu6TUvr3dcznckWXGwieMWpU/AARm/XoZczLdcLodswpizoyFnswGGoalFmzhcp6wo2YUSab+chxRlhedYJFnOPk6l93FastxGrDYRWSETPw3BqOdTKFHCQ//tO9467xMKjPrVG79Nj0+zguv1nmeXa757MufF5Yb5ak+U5GQquZTPiFKRFbKf11S9+BfzkMtFSBhl3D8ZcjTp4dimbJFRD0Gal2x2KVGSUZYVWV5iGjrrk5jxIMAyTfR2hdfcMAZ2+5TrZciTlyuSrKBp2sTC4sHZiLofHJCbA2GjkfTzzS7mcr7lyYslVd2oa60xySXj7l161P/e4857Wq3LDiwwXVeCoAambeK6NYHv0u8FTEd9kixXvbQR292e7T6mbjSEVks/+7qQFnuOgx8E+L6P67pYCqW1bQvHcamLjCJLyIqCarunaHR021LWlglluSPcrmjKhEHHpn90yrAXSIHEqiIpK7K8kOyBJGUfJYT7hPVur1C7mChOEZqBZTv4nk+n20XXTQlMKKq20DQ01WNf1w1VWVKVBdQlQWBzOuszUqJN76TT8I5jL4TsYx32O1imQb/r89m9Y1brHbt9RLiPKMuKqq4PPfytToCua5im7IHtBj69bsCg12E46BJ4LrqhvTZHHPaLfAYCz+VkNuZff/cFSZbjuQ4nszG2bb+fVZGae3Vdx3Uczo6nAJwcTViud3x+/5RZ6zQjbt5zN+s4g9Ggx1efnTPsdTg/mfH5Z2f0usEd0bFfPpyGFj/SdY3JsA9Ng2EYrLd7uh2P2XhIJ/CkPlDToAvpvjMdD/jmywcUeUHT1Hx274TRoHvY/zsNRQONkK0djm1xOptg6Dpd36MoS46nY4b9LsYtsPBjxV8/ST40ZtUStS1ymkIlp5pAmCbCdhC2LRVb28T1Y+1e09AsC812pCCYrkNTQ11JCviH0orFzcuzKEr2Ucz1YkXge7Lq0TSUeUlZV4f+lSzLWW12XFwu+NMPT3j87IKLqzlpnmMo2u+3X33GV5/f4/75MZ4nhcUO9AzDwHYdhoM+k9GAbsdnsdqwWG64VErXru/idwKEUAsudYxpJvsepEjTXiIEvsd42JeItWUqqu+HFw7uDJOQqHqpBBOuFysWqy1JkjEZDTg7nnJyMmUyHaNVFRy82X4+WkEh2zZxPIej2Zjz0xn/37//mX0UM19umC/WpEkqr3VLT2t7Kur64E03mww5O57S6QZohi7VpJu33YtyfNI0Y7XeyfFfben3OoyHfWaTIZPRANuxOHCg3mPiPPxWvLky2S4kpbiOVHMUQrvDWnhbtFQxwzRUlVI7XO6PfNn/huKmMCcANB1h2OC44HcR/QliOEMff4E2+gwRTBFOjxtvdh2a8laB7+MPYtM0iDKjyUOadAVWF6wOQnfA8MBwwR6j2UMab0pjejS6Rh0vIAvlv2tKefsvFO88Cq/8YEuxXmwinrxc8Z8/XPLD0zkXix1JWkgBI4XgCpX5VAoVbZHRxWbPYh0pam+Na5sH2nJbDa+bhrKqiJKcdRiz26WS8lxUxGnOdhdT1zWrXUKeV2qhp5LDSvpA1/WN0JFlSm2EsqrodRx810Lv+TJJFhJ1jeKMl/Mtf/jpkj/9dMX3T+eUZU1dI5MSvRXMaueo5kDfraqa1Tbicr6jrhslTKPhOpLa3SIOTVOTFxXrMObJxYo/Prrif3//ksU6YrtL7lD12sSnoTmMX1nVLPWIq+WOXZSS5QV13RC4EsX0XOtQDZGoak2U5mzDhPU2JitKIlv2MYb7hCyviFOZmEuafI2mCTqeTZzmlOqd/07L6F+x1v5Yc1rTSIr1Jox5erHiT4+u+c8fLrhc7KQdWt0cxtXU9QM1vFS931UlF7fXqz3bMDkUJR3bpN/zcBzrMD9XdU2aF2zDhDjNaWgIPOfw58B3kEu8Rv5Xo4rgkr5/uQxJswKQ1m2DnieLQHlxB51q77EkzVluIq5XIVfLHUJIP/RRz6NWTI22j/ofoaJlCHLzXtWEAKPBakxaMSVZzJM9pkmSEScpV4sV8+WGKCnIigbT1jC1BkNr0LUGQxdobdFI/WqaJrph4PoBttshDReESYRu2FjCJIkT8qImTSKyaIvW5ASuzWw8wDR18rKkKCqKoiLNS+I0ZxclbHcxy/WO5UbaISVZTtMIHEdDtzQMy8HzO8rWSj8U7m7fC3VdUlUlTVVhaNDxHGbjgRJuep3p8iEhVKG/E0irpvGoR5rmhFHCZruT55CkpFnWfgOQ1GbHtvF9l9FArnlbtPYgDvsLCKWmCVzHZjoeYJoGRVlimAYdz8NSFPn3CpXw6pZMOAPPZToesA0jRkp49rYGyG16smFIJF3TNMbDPnGSymRfibaqzb/DMRz+h6YJel0fx7bwPY8oTWVxz3Vu+srVMVumwWjYkxo4SE2LQa9Lt+O/3xio3be2t6NhD89z6HcD8qI87Ptj9yPDbyFJBlVtQ6LJtaKDHhpl20Xm69Wbj7Nv1LaFlMj8yBO87E+QlaMwivnxyQvKuubf//ADvu8B0kdMLqRqRUepSJKUcC9V4fZxghCCk9mYe6dH/P6bh/y333/FvfNjfN+TVLq6XXjLKpKhaXQDn8lwwNFkRJyk7MKI68WSi+s5vX6XyXR8WAzJJBmSTEr2L1Yb9lGM49iMBz2OZiP6vS6aYRzo8R9vkCQ1uVJN/tfXS569uGKzDfFcR+5/PKQb+LKSXrfK5u+w7eaWuq4m1QJ7HZ+uUgWvqoo4TsmSlDIrMBzrBklWmzB02VviuQ6ea2Pq+ttnltu3T9PIa5lmZFlBWVaYhim9hl0H21bG6R/ba/rOITSq7/yh0yjMAAAgAElEQVT9sttWKfwf651XQ1GgLB/RmYLdQYxKtMEp2uAU4Y8R7hBhKobAAfH/dNf4cM/VFU26o969AKGjZWtEcIJwJgh7ALqNEAaYHUnHFgaNM0ZEL2nSBY3WIKweQvvE1hK/JkQ7T8lhTLKc9Tbix6dz/vToip+eL7la7kmzCl3TcB2Tru/Q6zgHi7O9QnDDfUqU5qRZyXIb8+jFCl3X8X0HzdA5srrY6Dc7bqNF/pqGTHmnp2mhKHSCXseh67tYpo6ua0RJRhjLHtQollX0oqxYbmOsyw2jno9tqT4xSyYzUSz7RX96tuAPP11ytZCJjKGS937XpRs4+I6FoWtUdUOc5Gz2Cbt9RhilJFlJUUY8er6UlOzW67LnE/i2ouxWLDd7Hj1f8O/fXfDj8yVXi5AkledlWQauY9ILXDqeFEOp60YKA8Upu30mVU6Tgst5qMTEGuoGPjsdcn48kEnWYQK5e/9LD9WKfZyT5aVK9OU7xbZNDKM+KKWbpvHOat034Of7TlwfVghv34lFWbFY73lyseI/f7jg+6cLrpYhUZxTVQ2WqeO5sp+933EPC+5dlBKqfuVMJSdXyxAhBGUhGREPzkaHcXVtU9LrfZswSqnjhryoSdKCXZSxT3JGSvkahGrhkv++2cVEcU6eyX5zAezjjOVGtiwMex6TYRdXl+uisqrJs4L1LuFiviWMMuoaTFNgKUXxXuDg2G0i8euH8u85mpZW0twquB5aqAQNAl39nWWbWJbJaNAlzaTIWlkje3/rhGSbEe+W6IaFYTk4jovjetiOg2VLSx7DcoizmvV6j2lmWElBnIOuG+RphCFKfEsqmodRItkcysO4KBvQDBp0SuGiOQaGC26pMdRtQGBZlixWZtkhKZMifnd7TFsWWlmWlIXsRfZ8i27gSrtLy3ptrD58rFHjK/+n6zqOa6MrPYVhv0NRllQtQ6WdNQTohoFpGDjKNUY3pCBuu1b+RfaiSk4911HWhY0SKZTiur8+kWkwTQPfdzFMg36vg21Z8hhfSQ5vI+q2ZaF1JWW7rCpsS6qp34gtvn9IhXTBcNClW/kH9mFr4yT3Lce9LQ60KZZlvu6H/L5h6DquY6MN+9R1LR0Q1HX62PHbSJLh1iJIysPLuPVi/ZQI1u1E4k0vS/Hmv36XaO0/6qY5CB6kaYZtS9sTtfsDannzPU298AXdwKcTeNw7PeLbrz7jmy8f8M3n9+l05CJLHvYt/m3ToGuCTuAzGQ84PhozX21YrbfMlxteXMw5mk2pygq9rfhpgrqCKE5Zb0Lmqw37OCHwPSajAUeTMX1VkfokIQRV0xDHKZtNyGK5IYoTbNukoygvrnPr4Xqf63HrxmnN5juBh+c5NECa5eRZQVWW6M3rE7amyb4OyzSwLTm53K6svX4uN/ttmQF5IcV22oqb49iyqtgWiD51NK/95hejvf8+SXHqby0akD5CAjQD4XTRBufy3tJ1Kc7VmSEMF/TbL4Hb3OJPcKHvFGVqyBMaKuq6pCn2aEWI8EM07xhh92naBNnsyqTZHtBYXZpsQVPlsm/a8CXy/Zu67nISbpAo8m6fcjHf8ePzJd8/XXAx37GPMzRNI/Blv+xs1OFoLPtydU1jo1DMi8WO+Wovk9dEJiO2ZTDq+3QCh2Hfl71Srw1AcxiTsqppKAEd37MZdr2D+JFjm5iG3N9iu+dyHtLUe9KsUIlhymKt8fxqzajvcf94SO3bNMhk5WKx4/nVhmcXa6JE9h8Htsmo53PveMDRuEvg2ZiGTlVKwbBLRX2WNiw5UVbJ3t+6ZtBx6Xc8XNvC92xFsy64WoY8frni+6dzXs637MIUXRM4lsF44DMeBEyHHQZdD8PQqaqazT5msd5zcb1js0vYJxnbMJGJvK6rxNZgNPBxNU327r3Cj24fjaqSquNFIS28bMvAdyUKLZCKy+NBwLgfqCLC20PSx5sD7VgipDdI9i/dWZp6B+r6r7HPknNkWdckKrl99GLFj8+WPLvcEMUZNGDbBsOex3TUYToMmA46qtOsYbmNWGz2XC52LDcxaVqwDVPZb0yDoWuYhsaoJwWDHNskUOJxi3UEyB7oOJWiXvs4OxQdEEgbybIkjDMWm4h9LKn7EtmGJC1YbSNeXm8Z9X26gYvrSO2E28n15SJkH2eKAioVrTuBTa/j4ljGp1sf/L3Eqzdju+7l5lfL0rAwcSyLXtenLFtkt5DPdtyyWVKKPKZIDfLEJokcLMfFsh2yrCDLcsIoZbWNaepKJop+hGUaaE2J75q4RkBRNYRJSVHVZEVNjUaNjq5ZCE3ZS+o6mpnheOD6XUzTxHFsoihiuVwe+o1lkihPrE3UGlrv54Iiz3CMhq7vqHvM/tn+3o8REgcTaJpMfl3Hoqn9A4r/6k+3CX9rDUV7Fs2703hblwfrI/soH5wSLPOQkP98yOT1Y4+xtCczfrE3WwiBbZvY9u3e4xuGyq8NTWhYpnZAwz9l/PWT5EOCJ0DXEYYhbWgUZE9dQVlKJVaFHn5Us+imkdsuS0nzrtuF8I369IeHXCW0VhhFWSFEQW2ol5h6+FprEdM06XYC+t0Ow36X8bDPdCIpx/dOjxiP+nS7AaZpvD7pytUCuhB0ApfxeMD56YznF1IperXe8fzFFffPTkjjRErMWwYgJ7l9FLNYrZkv18RJwslswmwyYjaRSG6roP3RQ+WKVS2b8bNCCkTpymrEUIb2v5rvq+4zmaS6h0RZ1zTKVpyiqjHbe/HwpTuHyEGo6edO5NZX66oiLwrKsqSuK2m/YJuqmqfUDn/TYkn/CBmqh1BoMhEOpuh2cJgrhOkhTE/NGSqdu1NI+QtlnE0tW1aaDRQpdbpGRBc0nWM0/wwR3EOYUtALYSCMANwTsIaIWooUCsMHYdK0YnK/ldAEdSntaxbrkMcvljx+seTF1YY4LRBCEHgWp9Me334+48HJkLNpXy4KhcZmn7DexXz3+Jofn815drlhtU1UghDz8nrLdBhw/2iAa1vo1ivXTNwoDDcNGLrGoOtyNuvz1YMZp9Meo76Poyr7q13EfL3njz9d0TQNy03ENpTzTJIVbPcpmzAhyXKlMgxhlHG9kkrW4T6naaSQ3mTQ4eHZiH/56oQHJ0Np+adp1E3NJkx4eb3lz65FkhWsmoailPtYbRMuFiHjwYbZqENTe+R5yTZMeHa54dnlhuvlnn0k9+W5NsOuy9cPpnx5f8p01GHY9dB1Se/d7BMu5ju+f3zN4xcrnl1upABRKqnvlqUzG3U4mfYQhkFgtksMcUMMEzdjiLKUGnRdxgOf40mPo1EXxzZwLBPHNuh3Pbod2dP/tmaFpoG8kLT4zS5mvtrd/Btv+AIH3hWaENiWtLNybBPrFxLy10K9uzI1rs+vNjx+sZI9yHFGXTf4rsV4EPD5vTHfPjxiNgwY9XyVXMgk+Wq548+PrvhJX3LZ9q4nOVfLPaah0+nYnM56dHwH2zIIPJte4OLasnBbVbIXertP2EWp9HlWSFpZ18RZwWoX82K+ZRdlcpGthISyomSzk/fEqOdzNhvQ7UjkR96vOZt9ytU6IkoLhJBFDM8x6QcO/Y6DbemH5dJ/VdGu9423uViATOx0YaBpOoYhlYV916HX8aSdWFUparS0A0uyLeF+TV41ZIXsP1+vN7K/ebMmz3OCTkC349Pv+AgCdD3HqQxsx8J2OwRdD9f1sB2Xuoa8KFkul+yjhKpusCyLXq+vemvlke73ezRlVdrql9w5x7pWllUpWRrj+ha9jkfHd5X46Udcz//C+B7qda1a/Os58lu+/+uYYLeT2A89x5uv32Uh/KWP4/Z2Xj2Gt2377s+97kbz3vvmJhds/0bu/8O2+6b46yfJ7c2naQjTQli2/GiS0trkOXUSSdXpLJX2SR8C7R5CodZVRZ1KVe0miaGqVLJuyo/+YYlym/wKwFAUjuPZmH7XJ/BcRdO6EfFoq0TDfpfhoMdkOGA86jMe9hkNegwHXWzbuqWK+vrD26i+J8sy6XYDjqYjJkMpt55mOZfzFcvVhn24R+hdTEfSZtI0Y7mSgllpmmErT+DT4ym9XgfbthDNO/iyfUC0/Tk3Vclblb0PuuwyuZaejlLt1dRvDMzf/nCpCQmQSuDvci/cPLgtwtFeY8GNNcSvQsX/EX/FaIt5ppyfbI+2FUSIV+aJv/Qi8RZ7gaqCOqWpMigjmiJCFCEUKVpTgX+OMFxJvdZMhNmR6HGj2lyE4CCF+lu5OdWzX5Ql+zjjehny/GrN9SpkF6WAONgfnR/1+frBjHvHQ6ajDqZaiA1Tiay0fcb7OCeMcoqyIowy5qu9tOnZp7iejW/dpVzfnn50XeA5JtNRh8/ORnz7cMbJtEfHc6TVh6bR73oMez5JWrANY4XGJapHtyJOJJLd0inRIMkKdlHCPs7JC1lUsw2drm8zG0n14geno4O4WIOg20lxbJMsL1ntYgzl2aop1euqrkmz8uB5nKQ5mzDmYr7jaim9TEvFchl0XM6P+nxxb8Lvvjim33Hp+A6aYvqM05xO4BzQ1lj1qcZJwV4l+NerkPl6jxe4BIH7ygjenT8tU6fj2ZzN+nx+PuZ01ud43MOxDWzTUFRxHc+1b3311j2p6jh107CPMy4XkhUQxund++fVdyTye5om26FGfY9xP2A4kCrn71zTujWFp1nBJky4WoZcLLbs9illWWOZOr2Oy73jPl/eG/PtwxnDrkfHcw7HP+i59DsOVV1TKOQ2zQqKqpb3+zrkehmyWEeYho7v2viuTb8jEV9dCSNJK7SMfZRSKIEwIQR5Ie/x1TY6iMdJlps8h6qqD9dysdkTJ7lsD9IEZSX77/dxJnuWi1IhSbIFoNtx6XVcRbX8bdXV/qbiTj31RpAPUD3Ism3Prg1lzVaRFyVZViCoKIuKvMoo0pw0lfPbbrdls91xdb0giWNpkVON6QQ+uulgOAG238X1ffygix90cBwHy7LYRxFpviMvCoqyxDJNbNum1+tKqnVVkSQJlmXRejlLUOMGPa2VU0ueZxR5BnWJZdj0Atly9hdjHrSVMtEO8eE3b//Kb/xG/pTFhXeNd0OzX/3OpzqWT7Pd30CSDNIWRUM4DsJxEa53sHqq05hyt6HcrtHDMXoQIEwT6g+cjSUHg6YsqfYhVbij3m1pyhJhWmi2jeY4Uu2a9hn7dfuraqnU6bkOx9MR//av3/Dw3iknRxOEojMdkjFNYOgGnufguw6eKykptm1imSZG25/1LsmqpmM7tkSix0NG/d5BFGy53rDehliei6/r5GnMfhdycbXgar6WvsDTLl8+POf8/AjHdxH6LRXmTxa3Xg7teTY3SaZqMvm1m5YK4q1IWiXRG00I5ZF6wIk+4rnc3XbTSH/Cuq5vlKL/ASb/7cSh6dG4dReKD5ofPk00UCNV+hOZINdlQVOn6MJAOFPQVTIslNhOo6lv/oXR71+KA7QilKJvzNUq5GIuxZCaGgxDoshHow73j4d8djJiPAywHFNZXQh8XcOyDE5nfZIk52ohk45dJCm6m32iaK8RQcfB851bC4AbiljTyN7SbuBwdtTnwdmIk6MBw54nPSsVTa8TONimzvGky3zV43q5v6Egqp7cPC/Jy4qiqtAamZDkeSkFvxowhDjQWl3HwrYNTMu4mR+FwMNmUnfYH2XsohTfMfFdGyFk79aw6+E50t6qLGspQraLuV6FrLcxRVnJPlfHYDIMeHg+4f7piNOjvhT7UsrbRtNgWDqaISnJdS2p3mVVHxL9MJK9rdfLPZNx/5ULiBpD+RECfMfkaNThq/sT/u135xI1Dtw7tGdNExiWcUvV+3A7qORd0oZX21iqSq9CSRX+maibRvbVKn/iL84nfHlvgmWb9LoeVO+G1BzeGHUjiyBhwmIjmQBZUSohIJPxwOfh2ZgHpyNm4y6ubaJrNy0NPc3DNA0yhQwuNzHbfUqV5ge683Yvldx7gctspOG55gFJ1lV/el6URLFMaIuspC4rNAPyvGATxvLarCOyrETXpZ+rEJArVfUozdlFGWEsrcZ0XZO952khhdWUR7cQYBmyeNENXLq+qzy///Ey+5A43HOvIG8oLYRGOXo0itGmCYFuaNi2KcXTdKk8X5YRdZkSRSHrzZrNZkOaphiGTn9QYdo+veGU6eyIbq+PHwQ4jovtONSKGh3uQq6vrtluthRFQa/bJQgCXNc9HKdhSBulPM/Jsgzrlf5iqbFTkqUJVZFiG9DxLEW1tj6KovX7xKto7Kff36fbz/ts+699HH8ppsCniL9+knxIFCSSrLkeWqeL5nkI06TJMurNmmq1oBqO0SwLzA/k+bfJUFNTpynVdi0/O2mOrfkBWtBFD7oyIf+Q0+MGSTZNg1434PxkxhcP73H//qlcbBzEAxRyqmlYhoFhGpiqz6vtUZY/xTstyAVgmyajQZ/j2ZjTowkvr+astzuuF2uu5kuCfpcBsN2FPH95xaOnL7m8XuC5DucnMx6cHzMbD2+4/5+sDMRhjBzHxvOk+l5elKRpRpJmNzYgvybUglKKomVEcUIcpzCUYgimadx4vH3wuTSH/Wm6hmka6IZcPJdVRZpJv+GylDYxHwiR/yP+4qEKNa+uY35zoVgmVUFTFWDsIHVoij00stfxTvzWmQ2NtKHZRSnrXcx6F5PmJQg5b/iezWjgM+x5eApdK8sa6dYrDkmVYxt0fBvfs3BsgyjRVCIikebNLiZKOoxeGQiJPsq/M1TbRDdw6XU8fE+KvNxWjGnVpDu+Q6/jYpk3aqJNA1XdUNatArZEinRNqh7rmlSuhUahfLIndLHeE3gOti01EgzDQCBwHYvZqEtZ10yHHda7GJAJ5qDjMur7+K5NXTfEKuHahglRkkkFf9vAcy1GfZ/TmaSNe659d74X0irFd6Un73bS42jcZRumLDaRYiPJntjlJiLJitfeF62QoBCoxFzuczbqcjLrKxEz89ajpUxNNHEwtbizxVv03kPPd5K/7hv6SrRJsmXq2JZOP3A5GnUloo/gxqfsF0JN3Y1C6Ldhwm6fKqGuWqG+FsOez+msz2TYwXMtDE274XsjbRs9zWYy7LCPM55fbdjuE4p5RVFKJfIoztnsEpJcisW5tkkvcPBcC8vUSbOSspTU6DjJidOCLCsxG6TV1yZmEyZEcX5gQviuhWForDYxuSraSNQ4JU5yHMugKEriOCdJc4pCiqxJKxaTjvJGlr7Mn7a39O8qFFr8puej/bUtpFel9CkuypKilF6+7aeqGxohRb8aNNBtLNfCyQSuV+M4UiDUdR00AbZty/WIBk1TUZY5ZSn1WMqyRC8K9vs9YRiyXC4Jwx1CgOe6+L6P53kYhsHBd94wME2TLMtI0xTHce6gi1VVUhTSF9nUYdzrMB50lVfvXyD9eE0b5JU//1bfde8b77xsPUyYn+pIPl787Dn95a7jXz9JRk0MmvRy1TwfvTdACzoI26EpMqrNknI5Rx+O0bs9mUAf+prec3Ru01zrmiaNKddLqs2aOtyheT5ap4fe66N1ewjzA5X3GvURsmprWyaB79PtdekN+xhCSCuhVx7ill78Km76Xufb1FimwXDQ4+Rowr2zI3ZhxMX1gqvFipdXC2anM+qmYb7a8OPjZ/zw6CmX10se3j/l/tkRZydT6T8mhFRh/lTRNGhCWl0EvktPiZJJ8YmEMIrJivwWkvcrQmhkRUG4j9juQnb7iKZpcGzr0Jst3vDiet/z4FY1WDd0LKXQqmuaXHAkKWmakeUFvqoI/yP+1uLD+2r+YtHCb3UJVQ5NK2okV+lNc8Nk+W3GzYu9pZPu9ilhLAtnsqdUJ/BsBl0Pz7Woamlnd9vi/mBpUzfousBSfaiaphR8lVrzNkxJkuLt7m4oxo+hYStBP3Gwy1H/3qhEUNexLRPPkclIm1Ud/ms4CDa2iLHnmtiWLgUfa+nTvNpEPL0w8B2bqmwY9j16HRfPsQ/JuBRccuRCuiwPl9Q0dEmNtS2yopS2S1HGPs4OKt2mqcav5zIbdfA9W7YCSS7z4TKIRvqA+o4c69mow9UyxDR00qwgy0v2qoiR5flNReBWtLIPui5VyPuKrtvxnEOP4u3vvGvdsqob6qaWhZFf+E7b1lNVcsGf5dXB2/pdQ+n/QyMppXGaK9GsnCwrqZsGQ1dJctdjNuzQC1zFbFDvcjUWQjEGeh2X43GPe8cDNruY9TYhL1LKsiHJSrb7lCyXdGdZpFFJsmWQF9XBGi1OpJd3nBa4DURRzmITsd2n5HlJJ5DJ7XQY4NkmZVmz3MYHqvc+yoiTjK5vU+QlcZyRpgVFIa0XpcK2RdeXKLLv2p/EfuXvLW6IKXdXdnJdpzzdFTOirCopxJdIkCBOU2kPlWZEibw+DRqmZeO6Pp4XYDoOlv3/s/dezZEkWZbmp8a5OQcNkqRIt/SszMP+/3+wDzsr0jNdJFlQAO5wbpzsg6qZOxA8MiIzsjpuCRBZgMNMTY3pvefcc2zs0CYSDsN9RpJl6EKQZzl+4MniV1OQblfctjV5lpImAxzXw3E95vM58/mN8lOuiOO4R5CPqdTS8kvSq6XSf0ZVVXfWqFLRuoBGCoVdnIw5nY1wHFtaiX62eX4dIg8HpoM4/POOe/5jco13/c3HUKVf9zd3QJ33ek6Kfo36rv7hTzn2+9t+1/a7ob5ja6/85HMgy19EktyHAM1xMYYjqsEILYppE9mPXC8XVPNrjOEYzXHRbBvR9TMcc7Deuv3DjdMUBU2aUM5vqK5eUK9XUJUIy0YfDNHjIXoYIRTt+9esiA8F44NMvq76xox3GYsf/e7DLgD5AtY1Dc93GY0GXJzNePLsiqqqWStq9cPFiu16y/X1gucvblivdzRNw3AQcTIdE0WB7EX+nM1GbUvbNGgIXM9lMBpwejJh8PMzyqpmvdlxdXPLarkhT1IMRWHu/vad0fV9lyX73lYro24aXNcmDAMs11H2Vt1mf8X5bqUgCprANE0Cz+0tn8qqYr3Zsd7u2O0TokHUF24+Zp9f0+uvcRzHNZpXf9l9677+AHG3QkhV1X0yVqgFu1D3d5oVXC+26JrGcpP2PXzdkWqK3SEVX/fMl3uyQiYzbdspI0sF2bys3jpDgmMF1DvL3b4o2o1fe4tqcq+wKsAwZKI6GwZMYp84sMmKirKSat5CSF3Jm+WOYexJeybfIXBtfNfC9yx8hSp6joumqVaPjgLeQpVJQa80KxStW+1b13FsE8+1CTwby1Q2d3cmoYVWoKGQdMsk9Bw85cGcFaUUjyoq9llBWVSqPefV55RQ6LCu+qZNo/PYVfu5t9s3hioyCgGOZeLapioyvIcadiuFHG1T52QcEAUOlqGr43yPe0Qx3js7qzQr2CY5RSERPiGkr7XnWASeVBa3TdWmcbzpLlFGUph9T/bWDyIPy5RiWI2yD0vzUqHdKGVphyhwCD2bLCvJy4q8qNhnubKUymlb2OwzFqsdSSJ9YT1HUsAvZjGB53C7SdgmklWQ5iXbJGOfSpuvvKjYpZJ+XVW10jsxiAOXcezjuZZkSvHb0B//yNFRpRtFm5b+yBI1ruqaqqpJlE9ymhVK1E8iyA2Cqmml0nVek2Y1pmXi2gHBYMxoNMGwLHTDQOgryqomDn2qyYDQcymrGstx8VxbslC0Gsdo0KqEdFOxXrYUVct6s2Gz3eG6Lp7rYVkWpmke1tvQr2M7urUQQqLdqn+508xp6graGt8xGYQOwzgk9D1lhfT5ois8Nq88w+jvtV4X5j7YfC8+5pp+19986DaPlbjvek83h3fcfbCce80PrxDHxFFKdFjfN+2b+4zfNI4POY53/b7/es2YXxuiex9/3JjeFV9QkixfTJptY4zGKlEeUhU57W5HvbylurmimswkymwYiCPxqvfKlUAmTAiaIqdcLiivX1K9fEazWUHTIlwXbThCi2N0P0AYb/HE/bijPFxoEkbgGLJ47wvjfXaEpMTYpsNgEHF2OmEQB/KluU14eTVncXPLerHk5nrBy+sFaZZjGtKfbzIZ4HouuqF/XhQZoGnQNA0v8BhNhlycTRkOIqq6Zrne8uzFDYv5kmy3x3VsdMt6P69mtUhsmoamrNhudlwvViRZhiYEvucSxwGWYyMMnVY9dH59yAewbZkEgUfgyd7ysqxYbXYs1xLJnlbV0VDfL1H+HA+Cr/GvE22XlPSoBdAe01L+WNeP7EZQiWwtF+1l2VBVMrsQQnrsrrcpPzyZczXfYFrmIeFqjzckKEtpEbTcSoGsupYfkGhyRVZI2u67nvty88d0r9d8vmPmi8Oi5H5+1Cho1TAMwsDldBoxu1kzil1uNylFKXtE91nJfJXgKGXjMLAZBB6j2GMS+5xOIy5OYgahi6U8Iw2FcrdCUJdVX2RIFTW5aRoEQia9polrmbiO9Lt9JVFs6WnI0vdTCjc5tolpSgS4Vsh3lpWURU1THTQsXofpSAo8fW8vdOf67gffVvcRyAJI4FlMBj6zccgwcg+n5Q1/2LtJ6DrnSpnctV/jGPGG6Bbadd1QltJ+aZ/mFKotSIjDHHmOhWMZmCqZfN14hDiwCSLfIfRtpRgt+kQ8K8peS8MyDQJPWulEgaOU0mXf8D4t2O4ytrsUAWy7JDkr0DQIXJvpMODiZEAcuDx5ueT6dkfVSIXs7T6XXspl3W8vzUuqusGyDKU67jIdBqq3VDusab7GG6NpVJ9ufRDSk44nDXkhKe3z5Zqb+Yr1LmGrRAmFpuP6IZbtqPWMSdG2OFZANDrh5PyCs7MzhKZR1TV1VbPbbogDB4OYujVohYluWghaRJVgmxoDz6BuSra7LVeLNS9uVuRVTd3A5eUDvLESZFPnt2la6Qvfgz06lmX16tZdooxKtOq6QqMh9GxGcUAcehJF7pk3n+d66Zxkmteu50TP8pGFOQVSHL8r7m3rmEL+tvXXMV3++LOvU4E+/NmoIzIAACAASURBVOjt7+PjxPH+do6P8XCc3T6PtwHHB3fsaS26dr+jsbfq9+8ax4eLdnX7OMYsD9dC91WrFqT3BT81TZMtSv3xfLr4cpJklTAKw0TzQ/TRBGN2RpOm8mu/o7p6TuH5kiZ9doERD9BsB3RdWq9023klFMWtlWrZdZpQ3lxRPP2Z8unP1LdzaGq0KMYYzzBPztGjgex/FppMxj75zdwefX/L0H/NHtrDQsR1bU4mI85PppyfTBBC8MvzK/7rnz+jGzo/P3nBaiOl/OMoYDSIicMQw5D2ULSfKnl8ewih4dgW4+GA09mY09mYsqh49uKaf/70lL/94ycuz084O5GiZ21fATterNKtSvtK4Xq95WZ+y3/94yf+9o+fEMCjB2d89/iSR5eneI5N27z+IflRoW52z3U4mYy4PD/h0eUZT55fcz2/5R8/PmU0iPF9H9swcGyrN6xvj7bRH0t3WJ9oeF/jXzS0e9XxN7z4/6jRNhK5a9Q9390vtULA2ha2SSEXYa9jvwhBU8s+4LyoVM8yvbgeHNTu27fcbHd+9Ssrm/0CRoCneou/fzilrBqeXa95Md+QpAVpXtE0UnirKCv2ac5qk3Fzu+WZa/Pzy1smT30mg4DpMGA88BkPfIJQiuR0iWHduwccjkRTdF9d9UW/caGhxioAoUmmUo9Yq201bdsv/uv6Q98b7//Z48e+ELL3+2wq5+7yZPBuALqVvbWaJmRSGjhS8Oveq+TdI26VYrpMdhpVUNY0gaaKCYahvZdIUZfw60qAqVv0dYvHppHnr20kCu57FuPYYzoMuLndSW/lrod9m7Lapmi6JnvttylFWWGZBlHgMBn4DCOPQPUVu47Jdp+T5VVPx8/KikwhyXlR9b3zniuRwVHs4XyoZdZ/05B98wW7fcdmS6lqQOhoukHTCmW3JWgNDzdwML0WTdPRdQPb9TBNU7ZgFAWanuD5PmEU4/sBlm2TZRm73ZYk2VJmOxxLx44j8lqj1Wz8aIgmYL9ZYGqy2OLaJr4jCzKeY7BLcpKsxBIV6W5FkafopoVl2pLK7TiYpildQgwTx3FwXQ/P82jalv1+j23LHvUiz9DbksCLiUM5/gMJ8BO/mISgriryomS92bFPUqn70txNLoVi91iWbLPzXAfPtdE1HU3vBieLGbKgWoAA27IwDP3IWebV6IXKihIAx7GVboQqiNYNWV6QZhmmYWAa0s3GeEN/9kHBvCDLC1zHJvBlAbBpW3a7hF2SyqJkVd0DxY8LxP0P5TPe0IiCgMCX2j+aJiiKUiqZlxWGaRB4Xu9z39SNYjlkpFmObVvSLs9889i76J5dudLiaVtZZHWPWhxb5DspzXI2u6RvR3wjus+hSGmaBp7r4HsOvuei6592lfzlPN1kSR1hmLLCMxyjz87QVreI5YIm3dNeFbRIReruTjNGIzTNkZYsICvd96rQ3fabpqbOEqr5DeXTnyn++V9UL59RLxdofog2GKJPTzDPLjGiAcK0PlOCfHTMfN7ia9uCaFsc22SqENoH5ye8uJ7z5PkVge9RVjIJXW926LrOIA4ZDWPiMFA3wOe1fboflmkyGsacnUy4PJ3x9PkVz15c848ffuH8ZIxjW5zOxgihSQpQ23DUYilDPgnlHAC36w1/++fP/O+//ch//eMnRsMBjx+d8qdvH/Lo8gzfsSVa/r6CLe+IlhbRNHiOjTEd8fDilG8eXvDiesHNfMnff/iFwPc4m40ZRgHGeIBuGLJQBHdLbd3xdJDKMROBr8jy11ChWBOdV7N66NG3i/zBk+VWJXkdPbrt7veW3v4mLz5Q3K9VSKamoeudWJb6BfzmVSnPNbGNSC5eXZsovMGyDObLHYtVQpLlSklaWmFBolABgWMZuI7J2STifBbz3YMJ316OOVe/65N/JQh05zWptnEXXXhLdMi4SgTvW9r1ifJ7MHN+zaXZbVvTBKFvczqN+fPjE/78eEa/VHzLxhUe0qP8fZ/ke4IY3Rg69KOsm35/QkgdEsM4FB7ed14P50L0tZ5WzWvbyGTZUFZQ49hnNgr48alFC4r6fUiSLVNnm2SstlKcy7IMQt9hMgx6C6nQt/Eci+1eWpJtk5xdWpAXFWlesksL2ZrQtJi6hu9YDEKXUexim18Fu94U96mxWZazWK75+49PubldUzUahuXgeiGmZaHrJrphoDs2ni37i3VdP6I1a+R5TpqmCE3D8wPCMJKMP12nKApWyyW7zYoi3RL7Nk4QsM2h1V1msxM0XWOuQZPL1jrHtpgOI8aDgJNxzGK14Xa1Jclrks2SqhWgmZKq7QeEUYTn+f24HMfF8zw836eqKva7HW3TYFkmeZZi6w2+YxMFHqbxeXyRJRKMtCtLM15cz7lZrO4kyf3SUBX3XNfB81ymowGGpmHboOsmXZ9yrRLa1WaH0ARRAI6QYMb9nqbumGolzLrdJwiEnCMF4rXqebhPUhbLNa5j4zk2oUr0XjclVa0Sx+2e1WbLKI5wHbu/njbbPdeLFZvtnjTL+787Fn6Tz6GDpaNpGtiWydlJjWHoaELQthpplrPfp+zTDNe1cWwbw+iYLNLrerXZsVhuiCOfOPQRvjjoSLzpvKixJGnGersDJIqvxSGmaUi3yVai4rt9ysvrBevtniTJDoj80TaPp0nTNDzXZjyMgRjHsXt2QDcPvza+nCT5iDIthIYxGMHDBtIEioLq5kr2Jy/nlG1Nm+6oFjeYFw8wJzOMwfAITVbfOm6b8kIul3Oqm5eUz55QXb+gvrmmzTKE66HPTjAvH2NfPsSczNAc51+DOtTKfl9T14nDgJPZmG8enZNkGVc3t7y4mlOUJcvVljTLGMQhp7MxJ9MxwzjEfB3t7jOOlbrG1DSGUcDF6ZQ/f/eAoij4+487nl/N+V//+Q8C32MQhcSDCD/wEE2HKh1upRa5GEzTjN1uz9//+Qv/z//3f3j6/IqyrBgNI759fMH5yYRBFEj7ilaq4H6aY5H713Ud23M5O53y1z895uX1nPVa9iT/n7//yDAOaGj565+/YTwcYKmq3isPhaZRl3JDlsu+t7ZtpKpv4EulyH+F6/VrfFgcFYaEpiPcEJwAYbhS1TqZ05ap9E7+V6il3KPmto1yDjB0PNck8l1sy1BJyTsSpJ5lphYShsbJKGQ6jvA9u6tH/YbRIoSGZugMQk+KPjkWF9OY2/WexVqqW89Xe27XCdu9FC6ra7kYKquaJm15Md+wSyQSuFjv+fesoGlafMdC1lA0hfwe7fmI6tYeq529bbRHCVtzzDQSB7SmR/Q/ZxzR9jRNOgroXW8xvNer65Asf8TuVQFT9lgfttH11fXMhzdQJu/EUSGoaY6sD+/sS35QCNANDd+zekTYtuRiO81LlpuEwLcxDI31NiVJSpqmld7GgcMo8vr+89CTCtXXix1ZUbLdZ6x3Kbt9xj6RvsuF8ke2LAPftQg8+0iQ7jdaI/yBo2O8ZHnJcr3n5nZLg04YGYQDhyAMsR0XwzDQdalcrxt6X7jSdV22nFRaT5ft3EDquuF2ueTpLz/xwz//TuxqTAaeFBUUGppoQTfwPA/bdWmbmu1KY7ueo+s5oV9iGAbDOMS2LQZxSFHWFEVNkpfskpzbzZab7YrF3CaMYmazE2xbeqa7rstwMGC+WLDebKiqCsex0JoSz7UI/A7l+0xiXeq+yIuK7S7h5fUt89sV42FMHAWSqaf2XVYVRVGy2SY8eX7NzWDJZBRzeTbjZDpC0/U7CffNYin7rzWZ8FqG+drnRNvKAlWS5ixu1wghlH2rJV1sWilktliu+cdPT3Fsi9B3eXR5hus66jDuJndVVbHbJVJo9+Wc6rxhPIylEKyu43kOwyrEsa0eva6qiiRNpUL9PsV3XYaDUCHGGoYu23CiwFfClZKiv1UMh9vVlkEcMBrGvR5R1bTkRcnVzS0//PKcYRwyGcU8vDjBMs3XF1YVo62qa4q84MX1gp+fvcS25HHbloXvdai4PC9pmrFcb6nrhij0peuMAupe93jRlBhy6Hs4ap6P5+9TxBeUJEO34hNCYEQDNMel3e9ps4w2z6nShHa/oUr31Ms51XpFk+e0RQGg7JrUykeAKglJivVmTfHsF4qnP1E++ZlmvYSiQDgOWhhhnJxjf/M95tkl5nB0hL58OmTxcKJ/w5eJorEbmk7ge8wmQx5envLs5Q1V3XA9v+V2taYoK0zD4OJ0xulszGwyJI6CQ2/aJxryOzfTNBiaIA59zk+m/OmbB8xvV/zz52fMb9f8599+ZDyMGQ8HXF5WzATo4tiLWFE3WqhbWCxXvHx5zX/94yf+13/+g/liiabrzCZDvnt0welsTBT48oZuWrhXFO9Of3v0/f0OVM6ZZujohsFsNubPWcYvT1/w4nrOsxc3/PDLMzyl6Op7LqKFwPMwTV1VK2VC0DSH3qWiKFlttiRphtAEQeBhu45SnTyM786S5Vedu/be8+nrQuiLi450oGnghIhghuaMoS5oaCC9pS0L0AxZRv8DZ8u9QAcSOegIF5ahEftO32Pp2MpL+G2Xa0/MaPsEKw5dTicRoWejwW+WJR8/X4QQ+J6N79qMIo9H5yO2u4zlNuH59Zqn12t+ebHk5nbHPsuVkFmtfJdrsnzPfLljvUuZr3fYqof5bBr36GZXROjeuX0y16HMbzpsAbTqvdrKRX/TNDKZOxp/h4Jq2sclnh8aokNghURt5YL4/ZPkO7TEjwhNzamh310sSpXipi9kvM8wOhRL9qweeg01TaD3/ZP0Sbnn2Qwil9C3cWyDLJPCbKttiufK/vL1NiPJStkjraybhpFL4NrouqSqh570Bc/zsqdnr3apUuxWSvKawDYNSW10LZkkf1W1fmP0RZEOr1Hq49tdKm3aNBPTrRG6geW4+EGIaZqYKvGQFH1VwhGSftuzHo4smKq6YrNe8/LFc578/AP+N2dMzs9kW0nVgqgRQsN2HMIwRiCoypLFfI6Ryl76OPQJfA8/8CTqqXrtt/s9N4s12/Uti82GtGzIshTXtiGKsW0H0zQIgoD5fM52t6NpKtraJnYNAk8mRa5rf1bWWwsUVcVunzK/XbFYbpiM5To2DLzegi/Ncra7hPntmmcv5z1K69oWg1jS1oXQZAtPlnO7XKMrkMlTyewd/vLR/quqJs1ylustmqYxm4zohBlb2l5j56enL2Vy57nEUcBsMkLTD3oFHQJbVTX7NGNxu+bJi2t8z6GqKgxDovie4yCEhu+7VLVkjaWZFHlMFWU58D0GcahstyRyrGkavudgqZypqmv2ScbtasvV/Fa2j1RV369Zt1Kv4+Z2xY+/PGc9CMnyjEEcMIzDO20hd0NuO8lyXlwv+PuPT4lDn+l4IOcGCW+1SOG6NC/YbPeygBB6+J6LY9u8KUkWQupp2LaJY30e3+0vLEmGHlHWBJplYZyc0ooWTAPhB9S3N7T7HW1R0NxcURQFzc0Lyp/+jnBchGWrhaDaVl3TZgnNdku9XFCvl7S7rVT8jGL0yRTz9BLz4WOs8wfoQdgnx7+2GtElKl3F/Vi17TdFKFpVodI1XM9jNhkxHsZEgcdml7DZ7bEti8DzmE6GnJ/OCKIAwzIRb1swvWOfMll9nbDAm/5GJZZIVejhIOLbR5csV1sWtxsWyzXz2zX/73/+ne0+4dvHFzy4OCUKPHzXvUMNSdKczW7P0xfX/PTLM378+TnXN7dEoc/jB+f825++5dtHl4RhIPmWffHiCKU6ojUfq+R+2DxIJN93HU5nY/783SM2uwQQvLiSyXLTtGz3CQ8vTjmZjohD2SvS0UayvCDNczbrHcvVlpvbJUVZMR0P+ObxJYPhANd1oRXqMLpr7T3n/S2n40Bt7eaim6ev8eWFQAgDYYWI6DFCtxHOmGb/gjZ5CZqGsHzQbe70ofwhQiYHui6kErIhhTpKdRi6rhMGDg9PB1yeDhkNJBLLa+qcB8EQ9QN120uhPekXHATOPTXqTz1Ph8UvSES8qqR9kWSJHD5FC55rY9tSqOlsGvOnh1Npg7XPuF0n3Cy33Cz33Cz3sn85K9inJdoy4enVilHkEXo2ke9gKbpdR5NrGslQKcpSUdYrbNs8MLHuU88VQi/VwCtlnySfNV0PrmPJxbve0Ss/wwy+Gu2dZ3b3szesr17355Kl8J7rrO7drgl5TUplbQtTIatNc1Bjz5QqdV03Umn8/k6EXCw2zcETeZfkB8slXSbgllIC73vohcAyDTzXJvSlMnlZ1hRlzWqbousaVd1yu0mo6wbXMfEdUyqie7IPWfZz20S+jWVqbPc1u6Tg+nbHD08W3G72bPY5ZdVItW7XIvZtXNvs6ZpfgeQ3h3L6PqC/htRd8T0Xw/bQdYPlcikRwCQlDEPCMFCJsrRcEooC3DQNdd1RiOU6t6oqijzjdnGNQcXjszGnkwFR6LPeJhRJKi3tSoM8zwnbFs/ziOIh0WBCmW54eiXXFLquyX5jQ0domkzcNB9D1zFNg5PpltUupawFZbJkXSbohi0FD/OCPMuoyoqqKNAcnbPphG8uZwSB+0kpsG+e7K5YJ5Mn33WIQ58o9LGU/3rge0RRgGHoeK6jqMoZy82Om/mS8XjYI7stcg2kvec6qlvbt2rdd/+mEEgnhqqsybOC/T5lsdyw2e3xPQfb6oC+4+0pto467y0H1oxty+d40zb9Ws22DNk/nOU4uwTPdYjDAN9zsSxDvXkEhqn37IQDg6Urejb3hi7HVNcNuULhLdNgt0vJi1JeK/fUz7txJ0nG/HbNYrnhdrnFMs07miJ9vUFhm9LS0SQOfILA6+nlb3q+dAXKt9G+f018gUkyyNnSEIaBMRzLxFfTwXYobZv65op2s6ZN9lT7HfX8SqpSux7C8WWSLAS0DW1d0aZ72jShzVLapkEYBloQoQ3HmBcPsB98i3lyhjGeIfRDH+snjeOT95u/TNq+X9HzXKbjIePhgEEcqiQ5YTa2iaOA89Mpl+czgsBHM3TZ//0rlK0/+JJVN4qu64RRwMPLU3b7lF2S8r///hPb/S/88vyK68UtVzcLnj6/ZjKSlBrLlC/8uq7Z7vbc3K55+vyKn568IMukvcX5yZT/+Ot3/PX7x1yenfR0j/sJ8t2DuNd/8iGH07aIusG1LfThgO+/eUBZVqRZTlFWrFYb/vnTU9abHb88fcnF2ZTxMGYQh7Lqp2ns04zdPuVmvmS+WDK/XSE0wV++f0wUh5TKlqM9Fqc4ms+v8d8lBGg6wvDQvFOEM6a1R+CMaG0f2hJ0E2EGILR7DQpfcHRJrCZFRyzTwDKksJEoDosuy9CJQ5fzWczD8yGOZb7aKSLu/CM33/U9KYQGAULvUJzPvfqXI2mahjwvybKS5TahruViyDYNHNVDGgUucegB9HZAu33O9e2Wpy+X/PhsAcB125KoftKmable7Hgx2PDobETkO3KbtollSnXXzn4my0uSrGCfFriureDZ4wxTJmWtQkelr3RBlndq4Edez4707tV0/fPTrV8XR8n9Z1uTq1y8Kwx4Kvm0TNky07YHayhZuCgpqhrjdT28QvSFhzQrWG5S1ltJcZb70GTxwTb7vk71h1im9GLurKA224wsL9nsZE9f5y1et0rsy5UshcC1cWwLBES+QxzKVoWWliQruLndIYRgn+Rs9zlV3fTHGYcOrkKRv2pivCNkVgNdkc/UsW0T33Mx3QChG2RZJgskRUFdV0CL7/s91RqOxdsa2rahUz3P8px0v2WzWmDrDeOzCdNRjO+6bHYpWSbRuVqUrFcrfD/A9Tw8PyAeTritKpaLNaYhi3CBLwsvqMTDUMKige8yGUYsNztWmx2rbUJVlJRVLt0GipqmKqCpMUSDa+nMJjHnpxNc1/ksvcivm+q2W0NqOo5l4XsOgefKJLlL3miVOrzLj09e8PR5xk6hy76vEjO1sa79QW7//cbftpJw87aP53lBVdfcrjbcrtbq3fYqlftYtO94/oSQjgiGcZemrQmNfZLjWDaWaao5cAl9OQfd54R65jRNfXc/bcur6b2MRqHbHRq/3Sfsk0yOo7P1Omo3qSrZZ3yzWLHe7MiyXLIhjrZ5/+nRi3Gp89ah97+FcPDr4gtNkukvTqHr6J6PdXqB7vmYgxHl1QvK50+oFzfUm5VM5JKEuigQ+x2HKn0rE+WqhLqhFRpaEKCPpzIpPrvEmMwwhmN0L1AJsrhXif74EKJTqtSVEqAh/TI7BdrfKNoWhIQFcSyT0TBiNhlwMhlxs1jRNC3DQcQ3D8/50zcPeHR5qoSs7leT3jPEUXXH0DHVDaT1FL+3jVUl9G2LbZqMhwP+8v0jfN9hNIwIfJdnL665urnlx1+ecz1fKkqG7DkRCJpWVrv2SUqa5qRZzsl0xIOLE/7nv/+Z//Fv3zObjmXPg6H3fY2H3rYDZdAwJBpl6LJ344OzCoXoakJgWiYXp1M5H6bOaBjxn//1A8+v5tyu1mz3CS9vFniug2vbaLqkkRdlRVGW7PcpSZrTtvJ8OZaF5zjoWvfyaftx67qad0PnY2XxhaauXUPHNPTf5dr9Gh8YPW1UA90FZ4qmO+AMaVtpNybsEWimWph/+RBQvzDpUDNH0jxd2yTPpV9ylpesNhkv5xtmo5DLk4G8X7Uj2u39rdZtr3QN0iu4E6L6rRK77h1RlDV5kfDsasnffr4myUqquiUOHAaRy3cPpjw4HeJ6MgkTho5uGtiOheNYMvm1TGrlo7pY7pUSckNWlOyzQlkTCRzbJPDkHFqmTlVJWuUuLVhvUxarHb5vM8S/i6yqhX5DQ15WbJOMxXrPZpdRKu9eufC0GISe9Cq+C5j/S0Wr/qcJ+bz1HInUe46FaeqUpVS73iUy6Z2vdviejeNYsne525CiNDZtwy4tuFnuePLyluc3K7Ki6hkUHW3escwjNXGZ+Hq2Rey7RL7DjblTxQtZJEmykrKUehu2afa+2o5tYlgGrYAgcBjGkrJtGjpFWXO7TqRPd1mxT3JZDDBlkj0IPFzbUD3Y78gGvgaAanXQsQwD2zaxbQvTtjBMKc5V1zVpmlKWJZvNhul0ymQykUrRSkH4DqsLKMuCzWpJkW5p8h3BwONiNsRzbYSAqqzY7xNeXl2zyxp006IoK87Oz7Esi8FwCE1NXZdUFFwt1iAEnmPJdZiQV5nsfzYJA4FpGUSBxywvKKqGqm5ZbxNu11t8S+BZgtko4MHZmNEgxHWdz9eL/Np57gqeQuFld4UFhWrPcx0bBiHr7Y7dPqFuGtbbPUVZ3WPQfNo1T6fGrGmy2LnZ7fn56ZVic7qvrtdE5wH8fo/S/rOqLakXLTsGUV53PN3n1ZPl7ifkXGhCoBu61HwQGtt9wu16g+NY2KoIIVQxta4b8jxntd7y4npBVdXEkS+La4aOENprStCHtslu7G8dcze6z5hAf9FJMgBCQzMtRDxE9zz0IEQPY4TrUvkB4ualRIkrWX07zLgSYdJ0NNsA3UDYDtpghHl2Ib9OL9CDEM1xpeiN+ERefy0IWnRNw3FsRoOI0+mIJM2YjAZ9b4D4DV8sXaJsGgah7xEFkoLi2BaGrjMeRjy4OOHibMZ0PMS0jI9CkAWyR9i2TAZxyGwyIs0KppMRYeBjGSavwjuvG2xnneFybkyII1+p8ln8p0J/i6Jkn0hJ+mNMTNMOVGHbsjiZBvz1+0f8x79/x799/5g/ffNQUYo6QYD2QC1sFd3DNIhCn5PpGADfdQh9SeE8+Mq9z8T33zB0neEgwnUdDFMn8FwMXcd1HOVRnclEOMkOqNa9adF1jSjwuTidcnE6ZTKMMXXl5d1KAaPAc5kMpRDFdDwgCjyszuv6XWNu277fyXMdRsOYk+kY25bXsec6B6XEr+uiLziERI11GwwX7AGirWThUTNBKGu3L/0kdo8KlUhYR6hq5DukadlTfte7lJfzLbPRhsvTIZouERtNk4ul7paVNh3SyzdNC5KsQCCkEJFr4Tomuvj8ir3dQqRrEcnykqvFlr/9dC09b4uKUeQxGQYq+bTRDF0itEKgawaWZWAZOo6ps91lPAvdO5Y8Ep1slCeypEO7jkQdo0AmdFleUVbSWup2nfD8Zk0YuAxjH0P5T3YbqxsU0plwfbvjarFltU0lFVfXcByDKHAZDzwcR1G2/1WzZOhRQk0XuK5FHLq9UvSukejrPi1YrGU/ue/Z+L6No8Tlum3UdUVaVMxXO55fr3l+vWaxlAv2DkX2XIs4OFCku1eWqWu9GFccOH3vZVmpAlBWqj5EgeuYxKGLr+j7uiEXqoHvMB74TEeB6meXwm9pXvb3i6uKKoFnEQeuXBTfE5n8Gm8OAZIyb5m4jo3jlKDrGKaJ6ziUZUlVVWRZxn6/V6CKju/7eJ6HpmnUdd1/FUVB21Ro1OhNjm20hJ7NIA5l/7I6b3lRkKYZm13OfL7AcVx0wyCOIizLxrBsbC+g2K9ZrKXqcuS5mJbRJ+cStZSFcssyCTxX+SLXlFWDbWrooqbKIwxRc3k25eJ0QhwGUlT0N59sQVffe+X6VEmvZZpoQOC5+K5DmklApepyCX5FjU/c+7eLVrIkXSV4Vzc1eVFys1hyOh0xGkTKPksmmv3+j5LP9zt8cUiuOfozydt/w5BF/5FX9qLo2B1rxrYsTMPo+7+jwMd1bEzD6NH6oizZ7RM22z3L9RYEDKIA17GPNDF4/RLkeAxvGfNvEV9uktyH7OhAEwjLRo90hGWjhSHVyTnV4oZ6u6bZ7RRiXKuEoZE9eLqOMG0010OLYvR4iDGaoIcRuucjTENSuYG2bT7RkBtE02JbJuNhxF+/f8Qg8smLktl4xMl0hNdbDn2aXb5vdAmQpozUHdskDFzGw5iTyZAg8jEdSzohfUjBQCHVAlkpG8Qh3z2+xLYtHpyfSCT3/ITI96Cq35mAH1MgTcsk1HW+e3zJIAo5P5nw/bcPWCxWBfv+JgAAIABJREFULFdb8kL6hla1RDM6iXvXsRkNY2aTMY8fnPLNw3PiKMB27MMio723v6bB1HRC3+PR5Rn/9//MoAXbMrk4m+HaNoamfVQBQSYoGrZtcTab4No2cRjy/eMHPH1xzWIp0eQ8LyiKsu8VMS1THo/rEAY+p9MR56cTHl+ecTIb49qWRP2Ryfz5yYT/+Ot3CE3ju8eXPLw4JfBc2Z//tvOpzreuELuT6Yi/fP+IYRySpBnfPLrgZDLCsSxQvTG/58Pra7w7BCjBLkGLuq97TvEfaHmrLjPXNhlGHrNhwGwUsNllbPbSG3aXFryYrwkDm0HkkRUlk2GAY5mYpt5T1rJc9nu+nG+5Xmy4WUpa6cVswMXJgMuTAZ53bJvxeePAXBE0bUtaVKx3GattRpZX5GXNeOAT+Q6GoWMZOoZ+QEeqSnlplhV5XvbIOHS0Q9GLWVmm9NYdhNJbd7FSSHBVk6Sl7EN9usBzbXzPJvRsPFVoaNuWrKxYrBOePL/lhydznrxYstwkNG2DqVDKUeQxHYXSm/n45P0LRqv6g6SSrSltkQYew8hVfZoVSVYyX+744ekcyzTwXZM4cPEcifbRwk4VHn56OueHJ3Nulnv2WUldt5iGtPCKPJvJ0JfK6+rSFAgMXcexTCLld+zYBrre9QSqxa2hYRkGgW8zGQZK9bqz4wHfsZgMQx6djdnscrJiTl7kva5F03ZKsjqBZzOIHJze45R/5VP8CUPSY21bqj1vkpx9UdHUdS/Wpes6+/2eJEnYbDZkWcZgMCCKIjzPQ9d1yrIkyzI26zUaDWVqMY4cZqOYOPTRDY26ln69ddMghIYfBDSGi2maJEnCL7/8gu95hFGkEiqdsoFtIlXRXcsgjgIC/9VioVDsSE3TMMwGq2kxDI0ocJmOYtI0w/dcfF9e478XTZY7a7tOWb4/CvldHHrFgSP/+M81JJloWqYhGSW6xj7JlFie1Aca6BqGbn90atAv27vjp/v/h/X8O1X237BdXZOUcF95S+/2KS+uFgzCENeRxWshpGBhkmYsVhu2iUTpXceSat8d4vy2/bfH/3EY8+8Rf4AkGeh6aoVA2DbCNNFcFy2IMAZD6t2Wer+jLUuoVQ9tnyQbMql2XLQwksix70t0+mgR9ClPQKsSKNuUaOq3jy6YjgfUdYPvuUxGA1zHRvCRolgfE2pdXNUNWVaQJCm7fYLQNOLQZzIaMBkP8TxX9pFVH+g3irrxFDU5CgMePzhjEIfs9ilhIAXDAt+VogDN+xckuqb80SAm9D0Cz+VkNma+WLFcbUiznCwvqCppc2OZBo4thUlGw5jpeMRkPGAyig+Kka9lYLbQgKlLJfDLs6mqgrYYus7JdIRtS5+8tv1IKjoSDfZ9D9uSRvaT8YDzsynL1Yb1dk+aZuR5oUQaJBruOLYUnAikMuB4JPuWPceWD3h1IXmuw+lsAkIwHERMxgNm4yGh69B2BaS3RdOgCamaORkNAMHpdExRloyHsbQFsMzf78X3Nd4z1Mul6yMQyiJMHP/+y4p3LrbbViLJgcPJJOTBasByk7Ld52RFRZ5XLNcJT16usE2TzS7lZBJJaqm6Zuu6YZfkrHcpz67XvJxvuLndYRoaaVqiaRqjyMOyDTQD7mAJR2PrFx4feozHi5fuv9Xiw7FMPMcicC3mmiaptvuctoUnL5ZYhk5Z1Wx3GbYli5wIqUa82WU8vVoxX+3ZpwUoJpNp6niORejZ2JauekqlZdDZNGKx3jNf7dnu855iqxuyr7hpWoahROx1XSbwuzRnvtzzy/Nbfny2YL7ckyqk0nNMxrHHZOgzHYa4tnn33B5N4Kci+R+TgD73Jf3aMfeMTIFrmwwil9NxyM04ZJ8WFKVUHV9uU35+vlRijC2j2Cfy3b74sN6lzFd7fngy56cXS1bblKpq0LRuXn0mo4DJMMB3LY6vSYnuyeQ1Dhxc28Q0NMpS9q42TYOm6TiOwTB0OZtEhL59RwnWtgwGqp//Zrnj+c2GXVL09lVtK1FQx5JU/a5/+Y9ARvkiom17JNmxLQLPwXVSNmmGqKq+v1TTtJ5OXVWV9EMWgqqqyPMcwzBI05T9bsdut8ExBIYr8G2fURzgeQ5C02jKWjFIGuoWXNdDszSCIMCyLKqyZJ8kigghr8HdLmO9y9FpqIucFrAsqY5+X5Sp+1dDgI5ixNmEgUdd1+ha1571+3po9yDIa37XtFJtuqwqyqoCuuT/MxWP2x7yk0w9x8Z1HTRE3x54u9pIloFl0ami/8pdcv/oP2bt1nJIrA1dx/ccwsBjl6SUZcVqs1NtjzIBli0a0g+6rGri0MexTZzunfA+x6VAom7efq/4gyTJQNvSql5VIQQYFoav09gO+mAkE+SmVslX29OgJHSqS7Eu05I2UUpM5LMt9NvOu1N6kTmWJW/CtkXXdSxF9RW/dQlWE+Rlye1qw9V8yfOrOVVVM4gjxqOY8SiWKGE3qg+dn+5FYOiSWm2ZnEzHVHWDYejYlinNw2V5+z03KbmWQs2dpmlMJyPiKOTybEaeF5SlfMg1CpnXNQ1TWSM4tkwwLUsqrXa0kTdNe6ck6nsOpjlhNIgBeRlZ1qHvom0/Uvao7bQXJX0pDANJyR9GPYIsj0eivi2oY9ExDRPLMnEcC8sye9+7rn8fZJJ8MhsziEMePzjHUii0bZlStO59xqZJ4YSuB7yqJJpgmgaWachz+DX+UPHF9h4fk1UO78TXfE5+0NQlEno6iUmzksUmYbvPmK/2ZHnFPi15cb0mzUqeXS0Zxp6iUds0ylZnu8/Y7FMW65TVNiVJCzxbPpMHkcuj8yF+4GA6cJ83d79K/0GHeq+yf5QjYxoatmkxHQZcng7Z7nNulrs+qf/lxZJ9KkW6xgNf9r0acgGa5iXrXcbVfMOz6zWrbSqTGkPDc0yGkctk6Em7HlOKaQ0ilwcnQ1ablJfzDaUS4druM8q6pigqXs43DENPIdhS4GuTZKw2CTfLPct1yi7NadoWw9CJA5mAnYxDJgMf137Vu/2AanzcHL52PvuF1OeL4zG/KVF2bINBJHtC19uM203CPsnJi4Z9kvNc9YffLHcMQo9B6CLUgny9lZZAN7c7btcJSVYiNIFt6gwijwenAy5nsUqSj9Ve5XrINHQ8zyYMHHzPxDINqqpQCZdMzgLXZDz0uDwdEAVOf2DSPETHc20mo4DpWCbiS0OTveaqnm3o8noKPYc4kEq5X+P9QyCptrZlEvgenrOnqXeURaEKGTIZ9X0fy7LIsow8zymKgizL2G6lrVCnZp2nO4KBz3ToMx2F0uaoF2aSKthlJZNl07KxLY/RaITruj21u6prsjRlv09I9juSJCHZ1SwWYJhSyMvzHOxOBZnXJ1lC9apq6nNdG8kXFce841YJUOUFSZaTpBmmYUgqsP4bJPZti2VZRL5UDs9yCfTcLFaM4ojQ9+4UJn73ODrlmibwPEdSwy2TsqrYbHdYpsEg8tGEIM1yNts9i+Ua0zR4eD5TNqZVL/L4Abv8XeOP9ZTrFvEdVK9uSizr7uqlm91jHr7QEJ3q9W9Ul9A0gaXJZOaQGv0O0fUztC1pmjO/XSmV5DWB5zIexUxHQ0YDiRJ+9Cqw351QJuDdg/XQ6wB8VPLd92cIgW3LZNX3HOq2oambO8p/vXiVeukci0a8T12iE04wDKO3AoB7SfHhsD48WmiFWtyYUhjLsa3eD7nzK+2mTvqNar0HqOyxFK9dsOm6judquI5N07+s1Aurg13eEV0PjG1ZvY+e+tHX+EPGF5og99FZrB2yyG5x3979mBTA03WGsUdZDVluE8qyRtc05qu9pA1nJWW1ZbvPuFnu+gq2vK9a0qwgzQtSJfqlCbAsqdrrKtElTdP6+72rxrd3R/yhh6iO8/DfqGNu2xZN17Adi/Ew4PH5iJ3yqd2ncpzbvVQ63iUFL+dbHMvA0GU/aVHW7LOC3T7vqeeObTCKPaajgIdnQy5PhvieLXtTdYHv2pxOIzZ7mczpus7Lm41SYy65ud2x22fcuDtc25Qq2G1Dmh0UsItSquqHiub76HzEnx/POFXofa92+kpy2R7+95GXZb9gR4GZn6ve3X/rRn34/8fVHdFKtpHnWpxOIpKsYLVNqJuW+TIhy0vSrGTeSFEtz9nhuVafSCRKATvJCvJCXpORbzMaeHx7Mebfvj3h4dmI0HP64kiH7EgcoPM/diRKaZukWQnIZ79jmwxCj1Ekv3qU/wgJN0xd9rQGynPZMnpBNl3XcB2LQegSBpJqaRhf0CL+C4/+XGkahrLscmwLDaibWtLaUQV+RbvuBDjTNCXPc9I0pSpLiiJHo8GzNQahy3gYSt0Ry+xbRDr7sa7gbpgOluPgui6eJ9HesixVX7PsXS6KAqFlbPd7VnnCIPLk9TwdSZS7A51ed7MJ6DzsjxcKvxfjrFPszwvpGW6aUlUZJILcNC3bXcJ6u2O92R38hAehXAOLw7P/cxxBywF9tyyDvLSZ367Y71MpOJt5OJ3C9hcRdwdiWaa0Z3Jt8rxgvZHiZ/s0owWpFZQX1E1D7DqcTsds93s2u/2hHeg1x9apt5dVRZoXGKZxJ53r1vNCaJ8P8b8Xf6wkWcUBFeluyg95WP96/+MPDaEJNI7H+BvSrDnK5eqWLM1Y3K5YLNcs1xsGUcDJZMR0PJCVIdPg1dXpR+5XvRSOx/Hxnr2Hv+tECTRdRxM6rQF3Bty+vorZfkAf8eEGPHrgf0q4ooXePxGkb7emoXNvjkT3j7j7o/b1cykPW0NoHK64j5zzrthw/JD6SrP+Gp8tuuT4kIXcgV+7Go8QgtCz0TWp/K5rmqSE0qo+3pI0r0jzivU2vdNi0VtcNK0Sb9GJApvTScTD8yHns0iJEhn3UmT5ve2/8/5JXocad4ly/3cqUW5byd6wDUaDgG8vpQ1Q3zd9u6OsGvJ9zi4pVAHwoKnQtHJR2B2XZUphmLNpzDeXY75/NOPxxYTAUwikkPTa6SigrCTaZBoaZVWx3mbsk6JPhlfb7LA4pu0LDS1tTxGfDH0uTwb85dsT/uNP54wHvkQZda23TjmehLtIcsvHsxzU2TjazudgTMhht/2Yu8JGe+cDXc+uyWwcgpC977I4OZdMh6wiVV9LLVWCaPIqO9CaW3RN4DgGk6HPd5cT/u3bE/6vv1wwHgSKyXQ0tlb65Qq178CVfseea7LcyH5jXdfwHItx7DMIPQLPOrCqOC4sy97nwDGJPOmDvN3nSDxCI/BsJsOQKHClj/aXs4L/Q0SLXAvqhoFtS0qtJqBuD/Y+HQikaRqWZSmLH/m1Wq1Ikj3Jfofn6FxMp5xOY8aDEN878nVXz4O6pxLXmPZhe51oqWVZOCpxDoIAwzCo64rtZs3tesuTFzcYusBRqsuGaaK/oVPt+Fr6vaNtoakbKeyapmx2exBStJZW2rIVZc1yvWGxXLPZJZRVhe+7TMcDnM7+7nNCWoqxaFkGhung1TWrzY4kSdnuEgLP60XTfjdw7TXRYZGyICgdFYpSCujmRck+lUXafZKQFyWmaaoWwZimadjuksN2Xrv9lrquyfKC7S6hbeV5FEIWyC0F3JimIZ97vwFy84dMkg/RqoXT+0/Uf7tFvlTqkmqIecHtUnoH36421FVN4LucnUwYDWM835U35q/wRX5l959sS4foq7LdPrq+y3f8zYft47dBTo8FFA7Hc7Tj4zEc1wHecjyvjPtXthZ8KQ/or/EvEupa1ITANOQCPg4cirLCtg1MQ+uVl6171P7uftGVou9sHMprW8Awcrm+3XO7TlhvU4XKVa/4S5qmjm0ZxIGrRKZ8LmYxjy7GnIyj3mKHtkUTQtJMbSm2RAuOZUgVY8/pEV0h3rR6PHgHh77NMHZpW6mbEAUunivtMDShKVsSk8kw4JvLCUIInt+seXGzZbk5UMOLsqJpD/RvTbFNfNuSokqhyzD2eHg25OHpkPNZTOjbd5BdTZPo4njg8+2DCbohkcKr2y2L5Z71LmO7z6jrhrqRmXi3ULEdo/flHcY+Z9OIy5MBj85HTEdh35fWhUyyJFIfKauhvKh6/2fXMQ9je+M1AyDUNSO3FfoOw8iVrBdTJ1QI6q8WXDtGV3UN1zaIA4d95EpKdegSKr/p+3+nCRSK7/PN5QTD0PE9m5dzOa+bXcYmOZpXdV3quoZtdPNqMxr4nE0iHp2PeHw+YhT7uParHqrdjoUQ6hpzmA4DTsYRWVaROKUUYZxEnE1jBqGrkJh7ffatWoSah20slWp5ixTMO5/FPDwbEoeuqpl8bUj+sGiRBexOIVi1QVXKA7mROjqd/k5Hv+4SXtOQ7U6G7zCMHC5OJjKpUxTh47zu0G9bU9UNtqZjmiaacufoWsaO7YZs2+o/07Qa20TakY0WK1zXZhiH0jbpTWjy7x6iTyerWnr53q62WKbJbp+AEBR5SVGW5GUl55uW0HcZDSImw5go8DFNRVn/TKM8QHyK5WGZCCH71MuiZLtLsK01nmerIuOXN9fSzkzrhbiCwGOfpCxXW4SANM+hlWrWYSD1d3pGZ3fwd7cISN0LKcKbcD2/ZbOT29c02QsdBQFR4Cl70t+GyfIHT5JlfPGJ729UZTs2FD/8ENA0yrKUpt7zJT8/fclytQUhiMKA89MJg2GM47qIrl/4E83p5zo3/XY/47T2aM9njrcrTn/i7f2O2/oaX+M4uoQn9G1GsQcC8rzE0DUmsUfku9im8cr79FhApKOORqHD5cmA59drnr5c8eRqyc1yz2qTSq0CBELIRC/wHQahy8OzIQ9OBlzMBpyMA4aRVA6W9nzHY9QIfJtx7GMZOnlRyWRP0RFN40DNfuV+VVV3x7YYRK5K6sEy9V68yTKNvn3CNnXM0MXQJ0yGPi/nW57fbPjl+ZInL5dc327Z7LJ+Vx1SaJs6Y5VYXZ5Ile7TSchsFOIrb+Vu7uDQHxmHUmwlChxOJyFPr1Y8eSm/nl9vyPKSolD+2gJMUyP0HGbjkItZzIPTEWeziNNJROw7BL7TM05EK/rkyzSlsNQw8shLieTYps4wctX4dN6weupD9GNQ24pddmmAQFr2DUIX35Hn766S7ceFEPI8+a7FKPYo65q8qBgELsPIw3WsO6e7YxpJTQ6HR8aIYeRxOo54dr3ilxdLnl2teXazJs1LivLQm2dZBr5jcTaNOJ9FPFDFjZNRyCB0cR2rv0ZeF5oaa+jbnIwj1jvJqEiyEtexuJjFnJ/EREd90Hef7e1RkuwyG0ds04KqaRRzw+Hh2ZDHFyPi0LlzvF/jw0IogSjTNHBsk1p0jIhjdsKheK7rBoZhYpkmnuvgRjan44gHZzOmowGW2RWluuoORz3JEknWdJUkHxXMj5WddV0/fBkmumGSlw3LTcrVfC2ViW1JEe+YfF/i2kBqXckCQZLJ1sK6rnFsS4keJmR5QVGWTEcxZ7ORFK0dDRjEIb4SrpXvjM97fN3WTdPENqU1a5rmbHc7hGiZjAdHfcmfGdn+wOhaAS1TtuLEoU9ZliyWK6mrU9cM45Dz2YQo8N8hiCb6w2samSTnRUlRVkoDR8fQpSZPNZX6RqZl9u+0z40m/0skyV/jbgghaDt0Uj41SNOMF1c3/Pz0BT/+8pyyqnhwdsK3Dy/47vEDBlFwpGnw5T38vsbX+NeK9sA5+gTPeAmm3uGxfrHRjdWxDcbDgH/75oTpMCDJCqq6QRfSs7jzbdXhlVaJ7hml6xqubTKKfGxTigrNRiGPL8dsdhm7tKCpm54ZItWCLXxP0k9HkUccugSejWObMkHumlybFtvSGUYef3l0QuS75IW0WHIsUyUkIXHgyv7ge0wPoaR////2zrQ5blxL0y8WgiRI5qbNu12+Vd03+sv8/z8xMzEdPTHd0d1zJ+pWl8tlKaVcuQLzASCTKaWklC3JUtV5ImTJUhIEQSaTL3DOezId4s3xELDv8O7FGBYu91BHqssbjpXs7r+cu1VyIbibPU9iHI1TfHxzgIvFGqt1hcZuVsddWQ4nkMZZjNFAYzTQyLQr4xRcO+PuVpJagRkEAkkU4nic4cOrA0xna5TlRsy1IjkOnbvxOHO1lAdphCyJoAKxdSm3Bj4qkJgMNP7hwzEORqlboTYWkjNfUznBZJSgb452+YKxxv1VSYGDYYJ//OEER5MU//jhGACD5ByTocbhKOlMqb7mY2wr4kAKTAYJ/vLGurrHqwJVYxAriUES4fXJyK9aXxUMvF0hylo32BBH4ww/vFlhOlshL2tUVdO9/QMpEIXOZG080BgPNAZZhDR2ucE3PQi2u5bCTWC8fzWBjhXenIxR1g2UdDn8x5PUrbzvuOH4YAyoQGI8bM9Vgp/eH4MxIFIBTg7cpIsO1Sb8nLgjvSgab+JVGld1wrT3uEv3kaoqURY5YGskkcSLgxQvj8cYZs4cdUsge4yxqBuD2tfKdrW2gy0zqLbe8mq1wmKxwHQ6xXw+RxAEOD4+dmarkmNZ1Ph8OkOWJJBSeHOrp5iP3t4TnSlqEkc4OhjjxdEEOo5QlCW+nF3g7HyG4rxEHIY4OZxgPB5iPBy4HHGf4/8oF3fvM0yFClmaYLXOsVytMV+ucTFbQKkATWMepz97Ytt/beusHyBNYlzMFpieL7DKc6hA4mA0xDBLoeOod//aGWTdPbZwzjpz2qOJi5IIfWSXFAKDLIGOI/85fUsZqXuCRPIfCLtJ2ttcPH7Gb7lc4ZdPv+FvP/8X/u/P/4WD8RA/vH2Nv/zwFj/+8AZJmqA1kiEI4mFhD/A+s+3S4lN/C/uHgzh04YaTge7yMduHnNZgSnDWhT7vwpnauVWZLHECuW6co2tZNyjrpnO15j5ES0lXCimQAlJ6I7xerGLXDwtEQYBw4EKjf3p/1OWnMub6JbypHtvRx7aNTIdIY4VXR0M0vdJ3jLncYtHWPAY6MaoC6etRhjg5sPihOfD1kBtUVYPa5yAD3uxHuHJPKpAQwhn8bWrBX3NBeGEkpUAqBZI4xOEwhTFu7Kra76tuxRyDlG71X0kJKbkv87IJ2dzalxfJYSCghm4yosu9bM8zb8fwGoHca4vDicnDcYLJUHujw42hYtvOfbnCBlLiYJRgPIjx4fVhly/P23Mv+G6xYN1YBVIikNKN6ziFeW1R1fXW2LYi2a2U8G7lRAjuH9h743rD2Ljj50i0QhxN8OZkhNqHc7f5xlLckMNnbSfWJz532RiDppcaIfz756bUAuIGNgu9rsawnxgpGnivBNNNmrbh0MZYlEWJIl+D2RpJJPDqeIzXLw6QJdqXqNx+3zC2EcltuDVvw639e6MtMVUUBS4uLvDlyxfMZjMsFgtkWYbJZOJe1zRYr+b4fDZ3ZXyiAFIKCKHwFLGAW+GUAbJE4+XxId6/fYFBorHKc0RhAGsNZvMl0iTGydEEgyxFkujvZkzKOUfQhSzn+PXzGRarHNPZAjqOUDfNk4tub29H3NdNTnWMIJDOwGu1xmiQQnAnauNI9Rbgrm0RaH0uQnfu3r95gTTRvlyuu66FcEa3/c+ch4ZE8jOHMYayrFCUpVvlqBsEvtRSIASqusb5fIl/+/e/4X/+87/h518+AbCYjAb48cNrnBxPkKSJu9maZ/CATRDPllaIcYBJgAsXJ9mG9d/lvddfMPbNMsZ8mwKb1aJ7Wqp+AJzQBBgT4P74+1UAOr+oG9h4B9hupVgy7wwbCITG+IpztjP9Epx1LvHcR9p4W7orH+LtNmC8Z2LnhRlrzfHYjf10tXB9aCM24XPtMfJu/5tj8j914ySEN/aTAircmGe1eW2taGuPiV1zPLvHcLMflxIpoLhbjVHKwJrO3gmcA4IxcC/iWrOgmz0SNq63vJeW1h41bwdiD9wYAky4Pgi7ub55dyrv53pn/ry4scfWuW/H/SaujisDuCtFqHwFgxbO2gkD7isZbITS3frs98UFeC9Qpb2ObxuZzTE7x2xu+9f6zdc5sQf+dHLWvr8kZGlRd6ug7oxZwLtTlyjLNWxdYJRGLhpgmCGOIvAdEzTuVugEd9M0rsIFY96wyz3uV1WFPM+xWCxwcXGB5XKJ9XoNIQRGoxG01oi1diK9rmGaCnVT4PPZDIy7yRg2cPWWXQrA03tobHNWlQ9pj+IQIhCo6wZ5UWG+WMNYi89fpuBCIEni7h79WPQ/wjljiEKFLI0xHqaYLZa4mM2xzgsoKf3kqn2Sn+ScM8RRiKPJCD99fIu8KJHqGC+PD3w+Md9ESdwGAzhzE0hhqBBFCmGkugnkdkL7Mc8TieTnjH/CKqoK88USZ+dzLFZrV4w8VIhUgLwo8cun3/Ev/+c/8L/+97/j0++nCKTE8cEYf/nhNU6OJoiTGGiMF8lP74ZHEM+arbcUA7gEkzFYEAKBApra1Xj/mhkq/1DLuASTChARIEKAPUKtx2+ke2jv1E2P3sTBbUKhb7LHOIMAg5AMwW0duORrcN1uWmF9RSG0K/e4vY/cby+utGF7bdy8f7ftHufVtuN2+0t37aurxnDbc8iex98Jr9bNeTsme/Ntzw4zzjdOvjvbur/JXu77vJlMQe962X+QN+OKm9+bbXPf8DnMOd8o467d/jVxc9tOULs2xM426Bnh63FCR/iV/VBJBLJBXaOXUuImt+q6QpHnaMoCHDXGgyFODkduRTdUV4RC///tSrKbQ+KQQkIIAWMM8jzHbDbDdDrF6ekp6tp5DiRJgjR14jdQCtZYNLJGVVUo1g2+XCxhbYNMxwhVABlIiH3uR98B5ifyXHRNABUqhKECB8c6L3A+WwAM+Hx2jjRLcGTso5UUuq6/kVLIEo3xMENV15jPV+AixyBN0DT1d+vbbmz3xRlHFIaYjIb4+B5oapcDPkhdOoC7X5i9bmmujJgLrQ4D6cztQtXde7qpyke8BZFIfsYwzsGkwDIv8OnzGf7lX/8T//n/fgGwKUdRVTXOzme8JSQQAAASAElEQVT49fMX/PzrbwiVwsf3b/DTx3f48cM7jIcD+vAjiAemW4vjAiwagY/ewdYFYEqY5RmwmsI2jZus2kpKw6Wf+3F1AIQAkxIsHoElR+Cjj+DpOyBIAPC9Hoq/F9uhuTtfsXfXt1df77K6cfs+ulrvO9vcr483t4Eb27h1290b7f/a/n76YeP7NLHHfrZfsmu87hpFcan80re0deuubBtkcLXdPcf4ocb12k17OX5f26ZrY8c1R88I90IbHRJI4cLg68193xiLxjTI8zXy1RKhBAZxgqPJEAfjAcJL7vGXcU7Zbf11F2YNBpRlifl8jouLC0ynUxRFAcYY4jhGGIYIwxBKKeeUDXiDN4EwigBrUeYGy7zBb6fnziwwVIgi/iRXN1u61A5jIYRAFCkMM1f29Hw2x/lsgflihdU6Rxi68kLfEnn1tVu6j3KBKAoxHmVbZZVmiyVW66JXTu/p0N7ahODQcYgjPoIxFtLnKjPOvYv4HdtFb/7Y7DcR/VCQSH7OMAYIjqKqMJ3N8R9/+zv+xz//K9Z5jrpuIAPn0pfnBcq6RtMYnBwd4K8/fsBPH9/h7esX0EkMXCqRQhDEfdJ7cOcCLEwBvAI3FcAscP53WCGAfAVbrt3Kcn/bXT9zAUgJFsZgYQKWvQLPXoMPPoDpV2BSY/N0/8S5z3vPQ00K3Ecfv6WNx7o/P+R+7vU8P+J1fR/X1KP3d+uHr2zjGdw7nht+SNsSOoEQLsLCNoB1YqJpGhRlgbLIUZVrTJIER+MMB6MMgyzp/AZ2PbO1v2vzmV0tWV/dxJtzTadTzGYzMMaQJAm01tBaewfiTa7npl5zCFiLqi5R1AW+TBdQSmI8zHxI860xO98H2/+y3hRKIk01DicjrPMCq3yKha9NzFj/WFgvrcL9xhhzxUDy8g6dt8Ymt7xt6+ZOOrgXloMsRZ6X+P30Aqt1jtmixGqVozHmyb4jOXeTJkptrgUXPeNKmN359mfbibrvf8Qkkp817iJyeV0ux0X68hdFWWKdu1lwzjkOxkMcHY7x1x8/4L/90z/g44c3SFN3Y7SPYHdPEH9uemFCPAALB+DDd+57+gJm/hvM7BfY2SfY1TlgKv/pfOkDljFAcieO9QBs8Ao8ewWmX4Anx0A4AgsygEvQe5ogCOJp0S+9JIWA5ByAyx82xqAsC6yWC5i6gBIWk6HGy+MJ0iTuaoDftKjRCmRjjM/BLfDlyxmC2RKLxRxVVUFrjTAMEccxlFKQUnb9umzCJwRHoBSiSKMsGJblGmcXK3w+PQdgvVh+mmHXjs3zLWNOKGdJjCRxpdXyosTn0zNf0zwC89EjjPuQbSFgLVxpo7p2+veyjwSciG7LFxlrIJjs8vn3hXMXupwmGqNhhtU6x9l0jtU6R1XXMMbsfCx4CtwU/n/3xrxrR6+NfT0g7hsSyc8Za4HGQEmJLHVOfufvF5hOLzBfrFDWtSt5Ekc4Ppzgw9uX+OnjO/z1x/eYjIcIlXoyszUE8efAenMtCcYDsHAIGw3BkkOwKIMJNezFJ9hyDhZqQPr8Yi4AGblVaAuwZAw+OAEbvAcfvAULD8DCAcADgD3F8hwEQRAE0AYBMu/Uy2CtgalrVFWNqixQ5mvowCLVEQ5GKSbjrMtDvt2jwQvkpkFeOIOuqrGQUqFpGlefOYqcQA5DtzLNN2HTXXpA21fOIaWECiMYY7CqCsyWBT59OYfgDJGvnyzlUxLK142Rc53XOkaqY2Rao6pq/H56jkGaYjTMIGXgz4+bxAgCibKssFyvkaxj1E3jDaRce7BwY52XmC+WmC9XPuTYr8zjFlXbz6BiDEEgoeMIw0GK0+kF8rzAapXDwvpyUFuHc+2hfm0wyO2WDlf/2o8+uO4129vfluPkVpIv1w7/HpBIfs4YC4sag0Tj3esXiFSIjx9eOxv25RpVVYFzDh1HGA8zHB2MMRkPMRkNoMIAtNJEEN8RzsGYAqIxWKDBVAqWnsCmP8OuTwE0gEoAGQFGgsUTsMCVamPpK/DhW7BoDKghmFBgIvC2MM8kzJogCOJPSLeS7EvQNXWD2lqAcVRFDtQlxpMB3pyMcDgZII5C565/rbsferd9hsYYlFWF+XyOs7MzRLqA1gmSJEEYht3KsWlcjWZmjBPKrdjpN+3bdEI5RFVFKOocv34+BweQxBFGgxRpqh9wxO7ITqHnfsk5R6hcmaHJaIDT6QVOz2Y4nCwwWQ2gNXOmZJwjCCRCpbAuSpyeXyAIXJg54rArv2UssFqtcTFb4rffz3A6nbkSfso52fPLxpSti/nl9ak2KpRzKG/ipeMIFhZlXaGuDaqq3hzYTQK506H7ezRcFse7N7Ndk7v+3r8+d/lcdn27dg9OGBtr0BgD479uU/xXRfr9QSL5GWOtBTNAFCoEUiKOIpwcT7Ba58jzEnVTgzGOKFTQcYRUx1C+PFR3MdEqMkF8J5w7PeMhIBUgQnCVwQYxbD4FmsLnMI9gbQPWhlDzAEwfg6cvAaEAvqlDSNqYIAji6dKWD+OC+zBli7IsUDWAtQYSBqkOcDDK8OJogizRPo1uz/YZfA1mBR0F0KGA4AbM1uDWgNkGdVXAmhqct3nIvl68/5lxBs68aO5KygGcC8ggRFHXWOQ5zmYr/Pbl3LkzR8qVL7unOuVfQze23NWgb/vfhzMOJhm0dotH8+UKVV1jucoxmy8hpUAghc8RVkiSGMu1+9uXswuESiFLnYCFBRpjcDFbYnoxx5ezC6zzAlky7upYb0qv2c69mXM3xrtEHfOpk4mOMUg1sizBuiixXOX7jwNri9/sX0+4LSXYlRHc2qyXp97WcL8l5rtNy25ftTk3Pqx/x/bWurD1oqgwmy+dp1JR3rgf4SMdgkBC9bXNPUEi+ZnjImPcm0qLCFGkkKWJT5Y3APwNQwhXR3NHzglBEI/NJkeZ+SQjJhTABBgPYPUhYGp0othaQB+7UOq2hJSM/adhO9dF72eCIIinTismpXDuv+v1ClVtYU2DdBjjcDjE0cHAh//uU/Zt8yNjLsXuYDzAu1dHkJxjXdaoagNmCpSrCqUzqwFjAlwICCFdXWzO3ffe75yw25iFSRmgUSGqqsQir/D3304hpcAwS1yZpe8pkhnr6uzKIHDPvF6qtVHkbc32KAwxHKTIZnNczBYoygrTizm0jqDjCMLnB48GAyyWOX77fYrPX6aYL1YYDV1otjUWdd1gejHHxdy1EYUKw0GK8WjgHJ4Zu+S56USdEOJaESsEh44UxsMMr04OvUv3FEFw+7XQehQJ4SIVhLjdgbwVr0IIBL5vDJt+twZmwoeft2kC+4VXe8He6RAJLrh3T9+8oG3LGIvFcoVPn08Rhgs3hpfa63xQGaBUgExrZKmGEBpSiK1iAt8KieQ/CMzX4HRlBS7/0f/Tu2pIIBPE08Bau5mx5xJWaTAbObfTrTJJLhyv++JuFcL/8Xt0nSAIgtiTzb2+t6oGg6YqYAwgWIBMK7zw9ZCVUviae3sUBhhmKd68PEaqY6zzEkVZozEGdeNyWxsDNG15Ocb8R41xuaCmAdDAGg7ThuFa1pXmMU0NYy1WeYkyXyGJFUaZM5sayORBwl5vxoUqSyHcBMFkBK0jJDqGlGKHqRQQBKJbTa7K2oVH9wWlf02WahyMh1itcyyWK5RVhdW6cGPhDdKquoYKAqQ6xjBLcTAeIk2cYOv65+v/JnGMg/EQg1QjihSEuDSp4K+RIJAYZAlevzyGlBI6inAwHjoBe0l495/nuWjDyWOUowGyREP4MbA7t3FO63EUYpilsNZgNEg3ZmzWlZRVQYDRMMXL4wOMBiniUPWM5Hafk3awGWOudnKWoKpqMO5LRPUytoVwUa9ZqlFWNcqqgjEWZVVd3zRniOsGSkrEdXgl3Ps+ZA6J5D8I3cXRrUz1/+j+IWFMEE+TrZs7OMD55n3b/X7zr9vm7vUHCYIgiO+Hc0dmLqSZMzBYmLqC4BxacYyyGCeHI+g47oTNPs9u/deoIIAUEjoK8eJogrpuUDf+q2pQVTWK0jkxl3WNum5Q1Q2qqkFR1yiqBsbWMA1gGoOmsaiN8SVrOeqmQVOXqMoCVbGGjgIksYKQTlS2LtmP9szpdxMGAQapxtuXRyirCuNhBqUClxfcG6O+KDscDxEp5epKc+7qSvs64UJwJHGEk6Mx4khhejHH9HyGvCixXhe+LYZEx0h0jMkw6/KzndEa97MKvgJNIDEcJLD2CHEcIoljBIG8Mk5tbnKWaLx9cYRBonFyMMJkPEAQSPAbxlb6msVABhUEiOMQKmgnCnaZbrnw/EGqIThHqmO/jXRPG8ZACo4oUjg5GENJidEwQ6pjBL6azs5JEf/80h5LoiNYO0RjDMAYdBS5VX1rwQEEUiJNYhwfTrBcrVCUThybS2ZlXR14ANxyNI2BecAytiSS/4DsumhJIBPE86DN5XHBH9tlJshKgCAI4jnj7vCcu7q8g1TjxdEYQSBxfDTB0WQIHUc+zHoPJ+AduHBuCyEUFDYrnsYat4rcimIvkOumQdO4klFl3aBqml4ZKbdN3bhVaGMtyrpBURRYrQWWSwvBOfK8RFXVPjT4GuH0QLTPt1IKLxCHaExz7Uoy4EQrvLGtlNIZRMGViNpMSTNI6VZZhT9fOopQlCWKsurybKNIIY4ipEkMHUVQSm6FnVtvyiX8/jjnCHwerby8kuxpV5PTVLvvSYw4Cn2o8/Uh7W3NYlcXOvDh07KbKNiFEBxxFEEIgTiOEEjRrSRba7tjHw5ThKFC5L/ENWO7fRx+jEJnPmd89EIXiu5HWggOrWMcH46RFxplVbnzuuPy7/Kd/RglsUs15aw/5jd2a29Y9et/p8ctgiAIgiAIgnhIvGio6gar1Rpn0xk+/X4GHUd4cTTpVvK+VWR2JYqueNC0zspO8Doh4svtWJcTaqxx/zdeVDfGi2r3tS5cWaLZYonz2RKB5IhDhR/evcS71yeQUt7sxv2AtCLdAlsePDe9vv+dXdqmPzFt2vFoXZfhV30Fh2jzuXumV7sOv+1bJw/v0L/Lfbt+G2ATPcpuFMhb+7Gb2LVdQtx5HVmfo343N+kr1wK7at3lJmasK4lmzK1lrDqDMp/j3/brPqGVZIIgCIIgCIJ4aPziGGcuz3OYpRDCrdRlid6uPnIv+9uEGKP9yYsLZq+auLr6tOgJZ9utKjeNRWMaVHWMMqswGaVY5YUziuIcwyztxNX3il7cV0j2X9//fpm+4VcrxIS1vUSobTF+W7QX2yEOv6V/u7cBgK8YB4YbXau/xZRtn75wn4JgLYOFj6S46TLq9fehIhdIJBMEQRAEQRDEY2BtJ5IDKZGl2rv/3p/AvKniQasnrgiwXTrjUhO2J56dgDZd3rQQbUmpxzbu2uYuFVw2Xb1+m/6v3Kosw9aSZW+1d59T9zX52l9Tlea+x8EJ76+/Prvohhv61E1y3OUSai2ZHmBihkQyQRAEQRAEQTwirAvNbcsUPc7q62Y3/dpRuH7V7lKJqfa7tRaMc7/qfPdV3IfiLuO4cyxua3uXdfKd9nn38/zQ2+w3DvtNAty8j5sbcON768t2bPiVnboFEskEQRAEQRAE8YhcDov9rgard9j11gp0TzD+aQxi/yzH+b14QsNLIpkgCIIgCIIgvgPPSVxu9bW/ovqMjoEg9oVEMkEQBEEQBEEQ+0PCmPiD8/VWZQRBEARBEARBEATxB4NEMkEQBEEQBEEQBEF4SCQTBEEQBEEQBEEQhIdEMkEQBEEQBEEQBEF4SCQTBEEQBEEQBEEQhIdEMkEQBEEQBEEQBEF4SCQTBEEQBEEQBEEQhIdEMkEQBEEQBEEQBEF4SCQTBEEQBEEQBEEQhIdEMkEQBEEQBEEQBEF4SCQTBEEQBEEQBEEQhIdEMkEQBEEQBEEQBEF4SCQTBEEQBEEQBEEQhIdEMkEQBEEQBEEQBEF4SCQTBEEQBEEQBEEQhIdEMkEQBEEQBEEQBEF4SCQTBEEQBEEQBEEQhIdEMkEQBEEQBEEQBEF4SCQTBEEQBEEQBEEQhIdEMkEQBEEQBEEQBEF4SCQTBEEQBEEQBEEQhIdEMkEQBEEQBEEQBEF4SCQTBEEQBEEQBEEQhIdEMkEQBEEQBEEQBEF4SCQTBEEQBEEQBEEQhOf/A5lo8s04gnuQAAAAAElFTkSuQmCC;" parent="RV6ZMutweTkdE6J9OqRx-22" vertex="1">
          <mxGeometry x="20.5" y="15" width="499" height="72.1" as="geometry" />
        </mxCell>
        <mxCell id="RV6ZMutweTkdE6J9OqRx-32" value="" style="shape=flexArrow;endArrow=classic;html=1;rounded=0;endWidth=33.888888888888886;endSize=13.550000000000002;width=21.666666666666668;strokeWidth=2;fillColor=default;" parent="1" edge="1">
          <mxGeometry width="50" height="50" relative="1" as="geometry">
            <mxPoint x="2618" y="272" as="sourcePoint" />
            <mxPoint x="2618" y="366.5" as="targetPoint" />
          </mxGeometry>
        </mxCell>
        <mxCell id="RV6ZMutweTkdE6J9OqRx-36" value="" style="shape=flexArrow;endArrow=classic;html=1;rounded=0;endWidth=33.888888888888886;endSize=13.550000000000002;width=21.666666666666668;strokeWidth=2;fillColor=default;" parent="1" edge="1">
          <mxGeometry width="50" height="50" relative="1" as="geometry">
            <mxPoint x="2310" y="275.5" as="sourcePoint" />
            <mxPoint x="2310" y="370" as="targetPoint" />
          </mxGeometry>
        </mxCell>
        <mxCell id="RV6ZMutweTkdE6J9OqRx-41" style="rounded=0;orthogonalLoop=1;jettySize=auto;html=1;exitX=0.5;exitY=1;exitDx=0;exitDy=0;entryX=0;entryY=0;entryDx=95;entryDy=0;entryPerimeter=0;strokeWidth=3;" parent="1" source="RV6ZMutweTkdE6J9OqRx-5" target="RV6ZMutweTkdE6J9OqRx-6" edge="1">
          <mxGeometry relative="1" as="geometry" />
        </mxCell>
        <mxCell id="RV6ZMutweTkdE6J9OqRx-42" style="edgeStyle=orthogonalEdgeStyle;rounded=0;orthogonalLoop=1;jettySize=auto;html=1;exitX=0;exitY=0;exitDx=220;exitDy=75;exitPerimeter=0;entryX=0;entryY=0.5;entryDx=0;entryDy=0;entryPerimeter=0;strokeWidth=3;" parent="1" source="RV6ZMutweTkdE6J9OqRx-6" target="RV6ZMutweTkdE6J9OqRx-7" edge="1">
          <mxGeometry relative="1" as="geometry" />
        </mxCell>
        <mxCell id="RV6ZMutweTkdE6J9OqRx-44" style="rounded=0;orthogonalLoop=1;jettySize=auto;html=1;exitX=0.5;exitY=1;exitDx=0;exitDy=0;entryX=0.5;entryY=0;entryDx=0;entryDy=0;strokeWidth=3;" parent="1" source="RV6ZMutweTkdE6J9OqRx-18" target="RV6ZMutweTkdE6J9OqRx-19" edge="1">
          <mxGeometry relative="1" as="geometry" />
        </mxCell>
        <mxCell id="RV6ZMutweTkdE6J9OqRx-18" value="Executor" style="rounded=1;whiteSpace=wrap;html=1;fillColor=#ffe6cc;strokeColor=#d79b00;strokeWidth=3;fontSize=39;fontStyle=1" parent="1" vertex="1">
          <mxGeometry x="2813" y="403" width="240" height="120" as="geometry" />
        </mxCell>
        <mxCell id="RV6ZMutweTkdE6J9OqRx-34" style="edgeStyle=orthogonalEdgeStyle;rounded=0;orthogonalLoop=1;jettySize=auto;html=1;exitX=1;exitY=0.5;exitDx=0;exitDy=0;entryX=0;entryY=0.5;entryDx=0;entryDy=0;strokeWidth=3;" parent="1" source="RV6ZMutweTkdE6J9OqRx-10" target="RV6ZMutweTkdE6J9OqRx-18" edge="1">
          <mxGeometry relative="1" as="geometry" />
        </mxCell>
        <mxCell id="RV6ZMutweTkdE6J9OqRx-10" value="Scheduler for Single GPU" style="rounded=1;whiteSpace=wrap;html=1;fillColor=#ffe6cc;strokeColor=#d79b00;strokeWidth=3;fontSize=31;fontStyle=1" parent="1" vertex="1">
          <mxGeometry x="2513" y="402" width="230" height="120" as="geometry" />
        </mxCell>
      </root>
    </mxGraphModel>
  </diagram>
</mxfile>
